<?xml version="1.0" encoding="UTF-8"?><svg id="Layer_2" xmlns="http://www.w3.org/2000/svg" viewBox="0 0 1350 1350"><defs><style>.cls-1{fill:#fff;}.cls-2{fill:#0056a3;}</style></defs><g id="AF_Logo_CLEAN_2_Image"><g><circle class="cls-2" cx="675" cy="675" r="675" transform="translate(-279.59 675) rotate(-45)"/><g><path class="cls-1" d="M138.44,682.3l-114.5-34.97,2.81-37.71,118.41-17.53-2.43,32.62-17.34,1.27-1.48,19.8,16.96,3.83-2.44,32.7Zm-37.81-41.56l.99-13.31-43.66,3.52,42.66,9.79Z"/><path class="cls-1" d="M32.8,560.53l5.92-24.25c2.88-11.79,6.12-20.51,9.72-26.17,3.6-5.65,8.51-10.29,14.72-13.92,5.6-3.16,12.29-4.94,20.08-5.36,7.79-.42,16.47,.54,26.06,2.88,18.75,4.58,31.87,12.16,39.36,22.75,7.49,10.59,9.25,24.02,5.27,40.3l-7.68,31.46-113.45-27.69Zm35.17-26.02l57.58,14.05,.35-1.44c1.21-4.96,0-8.98-3.65-12.04-3.64-3.06-10.85-5.91-21.63-8.54-11.09-2.71-18.94-3.52-23.57-2.44s-7.56,4.18-8.81,9.3l-.27,1.12Z"/><path class="cls-1" d="M58.44,461.56l13.3-30.78,75.01,18.78-65.04-41.85,13.27-30.7,96.28,71.59-14.74,34.11-118.08-21.15Z"/><path class="cls-1" d="M198.92,429.64l-84.44-84.87,20.27-31.92,112.67,40.43-17.54,27.61-15.89-7.06-10.65,16.76,13.15,11.38-17.58,27.68Zm-13.72-54.49l7.16-11.27-40.15-17.5,32.99,28.76Z"/><path class="cls-1" d="M250.03,350.38l-86.75-78.18,22.39-24.85,58.04,27.36-45.63-41.13,20.41-22.64,86.75,78.18-22.12,24.54-55.96-25.25,43.43,39.15-20.57,22.83Z"/><path class="cls-1" d="M363.67,239.21c-1.69,3.15-3.52,5.97-5.49,8.47-1.98,2.49-4.16,4.71-6.55,6.64-4.69,3.8-9.94,6.53-15.75,8.18-5.8,1.65-11.92,2.17-18.36,1.55-7.73-.81-15.09-3.4-22.1-7.77-7.01-4.37-13.87-10.7-20.59-18.99-11.11-13.71-16.67-27.69-16.66-41.94,0-14.25,5.43-25.77,16.27-34.55,2.69-2.18,5.5-4.1,8.43-5.75,2.93-1.66,5.97-3.07,9.12-4.25l17.63,21.75c-2.33,.44-4.48,1.1-6.48,1.95-1.99,.86-3.73,1.89-5.23,3.1-5.21,4.22-7.43,9.54-6.68,15.97,.75,6.43,4.47,13.76,11.15,22,6.31,7.79,12.52,12.73,18.63,14.81,6.11,2.09,11.59,1.16,16.46-2.79,1.79-1.45,3.33-3.11,4.61-4.97,1.28-1.86,2.33-3.91,3.13-6.14l18.43,22.74Z"/><path class="cls-1" d="M373.1,235.21l-60.67-99.79,51.04-31.03,14.71,24.2-22.18,13.48,7.73,12.71,19.99-12.15,14.21,23.37-19.99,12.15,8.35,13.74,22.18-13.48,15.66,25.77-51.04,31.03Z"/><path class="cls-1" d="M388.7,90.86l23.05-9.59c11.21-4.66,20.15-7.22,26.84-7.66,6.69-.44,13.33,.76,19.93,3.62,5.86,2.64,11.26,6.98,16.21,13.01,4.95,6.03,9.32,13.59,13.11,22.7,7.42,17.82,9.08,32.89,4.98,45.19-4.1,12.31-13.88,21.68-29.35,28.11l-29.89,12.44-44.88-107.81Zm41.79,12.93l22.78,54.72,1.37-.57c4.72-1.96,7.23-5.32,7.54-10.07,.31-4.75-1.66-12.25-5.92-22.49-4.38-10.53-8.38-17.35-11.99-20.44-3.61-3.09-7.84-3.62-12.71-1.6l-1.07,.44Z"/><path class="cls-1" d="M561.05,154.25l-18.78-115.26,58.79-9.58,4.55,27.95-25.7,4.19,2.71,16.66,22.52-3.67,4.43,27.16-22.52,3.67,7.09,43.5-33.1,5.39Z"/><path class="cls-1" d="M630.8,144.37l-5.85-116.64,33.57-1.68,5.85,116.64-33.57,1.68Z"/><path class="cls-1" d="M679.49,141.29l9.8-116.37,33.33,2.81,13.32,62.77,5.15-61.21,30.37,2.56-9.8,116.37-32.92-2.77-13.73-59.83-4.91,58.27-30.62-2.58Z"/><path class="cls-1" d="M776.17,152.1l25.55-113.95,32.8,7.36-25.55,113.95-32.8-7.36Z"/><path class="cls-1" d="M833.35,125.11c3.29,5.06,6.52,9.16,9.69,12.31,3.17,3.15,6.18,5.23,9.03,6.23,2.54,.89,4.88,.9,7.03,.01,2.15-.88,3.61-2.43,4.38-4.65,.92-2.62-.48-7.4-4.21-14.37-.1-.21-.17-.34-.2-.41-6.49-11.83-10.27-20.57-11.32-26.19-1.05-5.63-.62-11.16,1.29-16.59,3.27-9.31,9.21-15.82,17.83-19.55,8.62-3.73,18.03-3.79,28.24-.21,3.99,1.4,7.94,3.38,11.84,5.94,3.9,2.56,7.76,5.7,11.58,9.41l-10.05,28.6c-2.76-4.25-5.54-7.7-8.33-10.35-2.79-2.65-5.56-4.46-8.31-5.42-2.38-.84-4.52-.89-6.4-.17-1.88,.72-3.17,2.06-3.86,4.03-.99,2.82,.51,7.25,4.5,13.28,.29,.5,.51,.86,.67,1.08,6.85,10.66,10.84,18.86,11.96,24.6,1.13,5.74,.56,11.83-1.71,18.27-3.79,10.77-10.32,18.18-19.61,22.23-9.29,4.06-19.7,4.05-31.26,0-4.46-1.57-8.6-3.78-12.42-6.65-3.82-2.87-7.51-6.54-11.06-11.01l10.69-30.41Z"/><path class="cls-1" d="M892.63,187.25l55.46-102.77,29.58,15.96-19.91,36.89,12.62,6.81,19.91-36.89,29.51,15.93-55.46,102.77-29.51-15.93,21.69-40.19-12.62-6.81-21.69,40.19-29.58-15.96Z"/><path class="cls-1" d="M976.08,235.26l68.83-94.34,27.15,19.81-68.83,94.34-27.16-19.81Z"/><path class="cls-1" d="M1015.83,263.47l80.95-84.17,24.11,23.19-29.22,57.13,42.58-44.28,21.97,21.13-80.95,84.17-23.81-22.9,27.05-55.11-40.53,42.14-22.15-21.3Z"/><path class="cls-1" d="M1187.3,356.66c-.09,.06-.21,.16-.39,.28-3.48,2.82-6.11,4.88-7.87,6.18-16.43,12.04-30.65,18.17-42.65,18.39-12.01,.22-22.23-5.43-30.67-16.95-8.47-11.56-10.77-23.64-6.87-36.23,3.89-12.59,13.61-24.58,29.13-35.96,15.74-11.54,30.19-17.22,43.33-17.05,13.15,.17,24.06,6.17,32.73,18,6.17,8.42,9.3,16.59,9.4,24.52,.09,7.93-2.82,16.11-8.74,24.54l-25.05-17.8c2.49-3.46,3.93-6.43,4.34-8.9,.4-2.47-.19-4.8-1.78-6.97-2.47-3.37-6.06-4.36-10.77-2.99-4.71,1.38-12.1,5.75-22.16,13.13-10.02,7.35-16.38,13.03-19.09,17.05-2.7,4.02-2.84,7.7-.4,11.02,1.82,2.48,4.2,3.59,7.15,3.34,2.95-.26,6.49-1.9,10.62-4.92l1.29-.95-5.89-8.04,19.16-14.04,25.18,34.35Z"/><path class="cls-1" d="M1195.85,426.73l69.74-27.66,12.36,31.17-72.64,28.81c-3.17,1.26-5.28,2.77-6.33,4.55-1.05,1.77-1.08,3.89-.11,6.34,.99,2.5,2.48,4.04,4.46,4.61,1.98,.57,4.55,.23,7.72-1.02l72.64-28.81,12.42,31.32-69.74,27.66c-14.18,5.62-25.78,6.63-34.81,3.04-9.03-3.6-16.19-12.06-21.47-25.39-5.27-13.28-5.83-24.29-1.71-33.05,4.13-8.76,13.28-15.95,27.46-21.57Z"/><path class="cls-1" d="M1227.12,518.15c-2.54,5.47-4.31,10.38-5.29,14.74-.99,4.36-1.15,8.01-.49,10.96,.59,2.62,1.83,4.61,3.72,5.96,1.89,1.35,3.98,1.77,6.27,1.25,2.7-.61,6.02-4.34,9.95-11.19,.12-.2,.2-.33,.24-.39,6.59-11.78,11.99-19.61,16.2-23.49,4.21-3.87,9.13-6.44,14.75-7.71,9.62-2.16,18.3-.58,26.03,4.75,7.73,5.33,12.78,13.27,15.15,23.83,.93,4.13,1.34,8.52,1.24,13.19-.1,4.67-.71,9.6-1.84,14.81l-29.58,6.65c2.14-4.59,3.59-8.77,4.36-12.55,.76-3.77,.83-7.08,.19-9.92-.55-2.47-1.64-4.31-3.25-5.52-1.61-1.21-3.43-1.59-5.46-1.14-2.92,.65-5.87,4.28-8.87,10.86-.27,.51-.46,.89-.56,1.14-5.4,11.46-10.24,19.19-14.51,23.19-4.27,4-9.73,6.75-16.39,8.24-11.13,2.5-20.88,.89-29.25-4.83-8.37-5.72-13.89-14.56-16.57-26.51-1.04-4.61-1.35-9.3-.95-14.06,.4-4.76,1.56-9.84,3.47-15.22l31.45-7.07Z"/><path class="cls-1" d="M1204.98,592.84l118.39,17.83,2.74,37.72-114.57,34.68-2.37-32.62,16.97-3.79-1.44-19.8-17.34-1.3-2.38-32.7Zm43.49,35.58l.97,13.31,42.67-9.87-43.64-3.44Z"/></g><g><path class="cls-1" d="M92.25,910.6c-4.94,.84-9.93,1.81-14.97,2.91-2.16-3.69-3.97-7.14-5.42-10.33-1.45-3.2-2.59-5.98-3.4-8.34-1.79-5.22-2.66-10.49-2.6-15.82,.05-5.33,1.24-10.51,3.55-15.57,2.32-5.05,5.76-9.32,10.34-12.79,4.58-3.47,9.93-6.26,16.05-8.36,6.64-2.28,13.14-3.36,19.48-3.24,6.35,.12,12.12,1.44,17.32,3.95,5.2,2.51,9.65,6.07,13.35,10.68,3.7,4.6,6.53,9.76,8.49,15.46,1.93,5.64,3.3,12.05,4.11,19.24-3.53,1.33-6.01,2.29-7.46,2.91l-6.3,2.57c-.15-4.34-.45-7.9-.9-10.66-.46-2.76-1.09-5.32-1.9-7.69-1.28-3.72-3.15-7.08-5.63-10.06-2.48-2.98-5.58-5.3-9.33-6.95-3.74-1.65-7.87-2.5-12.37-2.53-4.5-.03-8.94,.7-13.3,2.2-5.2,1.78-9.57,4.25-13.09,7.4-3.53,3.15-5.91,7.09-7.15,11.81-1.24,4.72-.89,9.92,1.05,15.59,1.8,5.25,5.15,11.12,10.06,17.61Z"/><path class="cls-1" d="M162.42,895.63c1.82,3.85,3.07,6.45,3.74,7.8,.83,1.68,2.12,4.16,3.85,7.44l-46.99,20.5c-.55,.23-1.12,.5-1.73,.8-5.11,2.55-8.64,5.09-10.58,7.65-1.94,2.55-2.89,5.34-2.84,8.38,.05,3.04,.86,6.14,2.44,9.3,1,2.01,2.22,3.79,3.65,5.33,1.19,1.25,2.49,2.29,3.89,3.12,1.17,.65,2.4,1.12,3.69,1.43,1.54,.34,3.18,.45,4.91,.33,1.71-.07,3.53-.4,5.46-.99,2.9-.91,7.77-2.84,14.62-5.8l20.29-8.8c5.87-2.63,12.3-5.61,19.3-8.93,1.77,3.75,3.11,6.53,4.01,8.34l3.7,7.14-28.14,12.11-22.24,9.85c-5.22,2.23-9.24,3.66-12.05,4.28-2.34,.51-4.64,.73-6.9,.66-2.05-.13-4.02-.53-5.91-1.19-2.45-.84-4.81-2.06-7.08-3.68-2.56-1.81-4.83-3.95-6.81-6.41-2.74-3.41-5.11-7.13-7.13-11.18-2.07-4.15-3.57-8.25-4.5-12.31-.79-3.47-1.03-6.9-.72-10.27,.3-3.38,1.06-6.31,2.28-8.81,.98-2.01,2.49-3.97,4.51-5.88,2.24-2.14,4.99-4.03,8.25-5.65,1.14-.57,2.62-1.26,4.45-2.09,1.83-.83,4.21-1.87,7.13-3.12l8.23-3.54c2.58-1.08,6.35-2.73,11.29-4.94l12.57-5.64c3.44-1.55,7.22-3.29,11.36-5.22Z"/><path class="cls-1" d="M125.58,1008.18c5.21-3.77,9.39-6.98,12.52-9.6,.81,8.09,2.83,14.6,6.06,19.52,1.29,1.97,2.84,3.58,4.65,4.83,1.81,1.25,3.61,1.88,5.4,1.87,1.79,0,3.46-.52,5.02-1.55,1.2-.79,2.15-1.69,2.85-2.71,.92-1.45,1.64-3.32,2.16-5.62,.79-3.03,1.93-8.27,3.43-15.71,.75-3.57,1.31-6.06,1.69-7.48,.8-3.17,1.69-5.77,2.65-7.81,.96-2.04,2.1-3.8,3.41-5.27,1.31-1.48,2.87-2.8,4.67-3.99,3.32-2.18,6.97-3.42,10.95-3.72,3.98-.3,7.84,.62,11.6,2.75,3.75,2.13,7.24,5.65,10.44,10.54,2.89,4.4,5.52,9.75,7.89,16.07-3.58,2.57-7.58,5.64-12.02,9.21-1.02-6.18-2.86-11.3-5.52-15.35-1.97-3.01-4.38-4.95-7.21-5.84-2.83-.88-5.29-.64-7.38,.73-.57,.37-1.12,.83-1.65,1.37-.53,.54-1,1.14-1.41,1.79s-.86,1.63-1.34,2.93c-.49,1.3-.93,3.02-1.31,5.17-.39,2.14-.66,3.94-.83,5.39l-2.21,9.59c-.43,2.35-.93,4.52-1.49,6.51-.56,2-1.18,3.79-1.85,5.4-.67,1.6-1.4,2.99-2.19,4.17-.79,1.18-1.69,2.26-2.69,3.25-1,.98-2.13,1.89-3.41,2.73-2.97,1.95-6.17,3.19-9.59,3.72-3.42,.53-6.72,.23-9.89-.9-3.17-1.13-5.96-2.82-8.37-5.06-2.41-2.25-4.59-4.86-6.55-7.84-1.29-1.97-2.6-4.39-3.93-7.26-1.33-2.87-2.84-6.8-4.55-11.8Z"/><path class="cls-1" d="M169.8,1074.69l15.14-10.75,22.18-16.47,21.56-16.53-2.43-2.99-2.31-2.74-2.2-2.61-8.37-9.6c4.91-3.61,8.61-6.41,11.1-8.38,6.61,8.27,13.57,16.9,20.88,25.89l12.54,15.33,6.73,8.18c-4.9,3.51-8.61,6.29-11.13,8.34-3.9-5.41-7.78-10.48-11.63-15.22l-2.68-3.3-9.41,6.8-35.61,26.89-5.87,4.63c-2.41,1.92-4.92,3.93-7.51,6.03l-5.2-6.6c-.58-.71-2.51-3.02-5.78-6.91Z"/><path class="cls-1" d="M295.9,1082.04c3.98,3.76,7.21,8.01,9.68,12.73,2.47,4.72,3.78,9.84,3.93,15.37,.15,5.52-.85,10.86-2.98,16-2.13,5.15-5.58,10.24-10.34,15.28-4.47,4.74-9.44,8.62-14.88,11.65-5.45,3.03-11.07,4.76-16.88,5.17-5.81,.42-11.48-.56-17.01-2.93-5.53-2.37-10.55-5.69-15.07-9.96-4.28-4.04-7.74-8.62-10.37-13.73-2.64-5.11-3.98-10.49-4.04-16.13-.06-5.64,1.11-10.96,3.49-15.95,2.39-4.99,5.69-9.71,9.9-14.17,4.62-4.89,9.8-8.83,15.55-11.84,5.75-3,11.5-4.56,17.24-4.66,5.74-.1,11.32,.98,16.74,3.25,5.42,2.27,10.43,5.58,15.03,9.92Zm-9.92,9.22c-4.04-3.82-8.56-6.07-13.58-6.76-5.01-.69-10.03,.1-15.04,2.38-5.01,2.28-9.55,5.57-13.62,9.87-3.78,4-6.53,8.37-8.25,13.11-1.72,4.74-1.91,9.43-.56,14.05,1.35,4.62,3.78,8.59,7.28,11.9,2.65,2.5,5.67,4.37,9.06,5.59,3.39,1.23,6.98,1.6,10.75,1.12,3.77-.48,7.52-1.81,11.25-3.99,3.73-2.18,7.13-4.9,10.21-8.16,2.88-3.04,5.24-6.34,7.1-9.88,1.85-3.54,2.91-7.11,3.15-10.69,.24-3.58-.34-6.96-1.77-10.14-1.42-3.18-3.42-5.98-5.99-8.41Z"/><path class="cls-1" d="M277.24,1184.15l9.25-11.05,31.33-39.62,13.35-17.39c4.3,3.02,7.45,5.21,9.46,6.58,1.61,1.09,4.57,3.05,8.87,5.87-1.44,3.17-2.44,5.43-3,6.78-.56,1.36-1.39,3.58-2.47,6.68-1.08,3.1-2.34,6.9-3.79,11.39-2.24,6.77-4.59,13.35-7.06,19.75l-6.72,17.37,19.19-15.12,25.89-19c.88-.63,1.85-1.39,2.91-2.28,1.07-.89,2.94-2.49,5.63-4.81,3.57,2.53,6.78,4.76,9.61,6.68,1.89,1.28,4.92,3.3,9.11,6.04-7.27,9.79-15.16,20.71-23.65,32.76-8.5,12.05-14.79,21.08-18.88,27.1-1.97,2.91-4.42,6.56-7.33,10.98-2.97-2.12-5-3.55-6.09-4.29-1.58-1.08-3.71-2.47-6.37-4.17,2.61-3.45,4.72-6.3,6.35-8.57l21.98-30.71c3.09-4.35,6.08-8.65,8.98-12.92l2.84-4.28-51.47,39.67-6.2,4.92c-2.92-2.08-4.93-3.5-6.03-4.25-1.38-.93-3.55-2.36-6.54-4.29l14.11-37.67c.51-1.34,1.51-4.19,3-8.55l4.44-12.63c.42-1.2,.77-2.17,1.08-2.91,.3-.74,.99-2.39,2.05-4.94l-5.16,6.31c-1.6,2.03-4.26,5.45-7.96,10.24l-23.89,31.33c-1.16,1.57-2.82,3.92-4.99,7.05l-5.81-4.1c-1-.68-3.02-2-6.05-3.95Z"/><path class="cls-1" d="M393.92,1256.09l6.92-13.39,14.58-29.98,10.27-21.89c.91-2,1.82-4.03,2.71-6.08,.66-1.51,1.63-3.79,2.92-6.83,4.28,1.96,7.77,3.53,10.47,4.71,2.16,.94,5.18,2.19,9.08,3.75,3.89,1.56,6.97,2.83,9.23,3.82,4.65,2.03,7.9,3.91,9.76,5.64,1.95,1.87,3.41,4.09,4.37,6.68,.96,2.59,1.33,5.36,1.13,8.31-.24,3.31-1.08,6.62-2.52,9.91-2.18,5-5.25,9.07-9.21,12.21-3.96,3.14-8.3,4.88-13.02,5.22-4.72,.34-9.43-.51-14.11-2.56-2.29-1-4.62-2.34-6.98-4.01,1.02-4.36,1.82-8.5,2.42-12.44,1.86,1.41,3.82,2.57,5.88,3.46,2.79,1.22,5.42,1.79,7.9,1.71,2.47-.07,4.79-.94,6.96-2.6,2.17-1.66,3.85-3.87,5.05-6.62,.71-1.63,1.11-3.23,1.2-4.81,.09-1.58-.17-2.98-.77-4.21-.6-1.23-1.42-2.25-2.45-3.04-1.03-.8-2.63-1.67-4.78-2.6-1.88-.82-3.8-1.61-5.75-2.37-1.95-.76-3.67-1.46-5.15-2.11-3.72,7.42-7.19,14.56-10.42,21.42l-10.29,21.95c-3.64,7.78-6.26,13.52-7.86,17.2-.61,1.4-1.47,3.42-2.59,6.07l-7.29-3.32c-.95-.41-3.49-1.48-7.64-3.2Z"/><path class="cls-1" d="M525.16,1211.46c5.27,1.5,10.09,3.77,14.47,6.82,4.37,3.05,7.9,6.98,10.58,11.81,2.68,4.83,4.27,10.02,4.75,15.57,.49,5.55-.22,11.66-2.11,18.33-1.78,6.27-4.39,12-7.82,17.2-3.43,5.21-7.62,9.33-12.58,12.39-4.96,3.05-10.44,4.81-16.44,5.26-6,.45-11.99-.17-17.97-1.87-5.66-1.61-10.84-4.07-15.54-7.38-4.7-3.31-8.38-7.46-11.04-12.44-2.66-4.98-4.08-10.23-4.27-15.76-.19-5.53,.56-11.24,2.23-17.14,1.84-6.47,4.61-12.37,8.33-17.69,3.71-5.32,8.09-9.35,13.13-12.1,5.04-2.74,10.49-4.36,16.35-4.85,5.86-.49,11.83,.13,17.91,1.86Zm-4.54,12.76c-5.34-1.52-10.4-1.43-15.16,.27-4.77,1.7-8.85,4.72-12.24,9.06-3.39,4.34-5.9,9.35-7.52,15.05-1.5,5.29-1.92,10.44-1.26,15.44s2.66,9.24,5.99,12.72c3.33,3.48,7.32,5.87,11.95,7.19,3.5,1,7.04,1.25,10.62,.78,3.58-.48,6.93-1.8,10.05-3.97s5.83-5.08,8.13-8.74c2.3-3.66,4.06-7.64,5.29-11.95,1.15-4.03,1.72-8.04,1.73-12.04,0-4-.71-7.64-2.14-10.93-1.44-3.29-3.52-6.01-6.25-8.18-2.73-2.16-5.8-3.73-9.19-4.69Z"/><path class="cls-1" d="M579.6,1313.77c-6.09-29.85-12.54-59.51-19.37-88.97,3.5,.44,6.35,.76,8.54,.98,2.41,.24,5.27,.48,8.57,.73l10.17,53.77,4.38,21.21c1.7-2.97,4.3-7.76,7.78-14.35,3.49-6.6,6-11.48,7.53-14.63-1.1-6.06-2.52-13.4-4.26-22.03-1.75-8.63-3.3-15.92-4.66-21.88,3.1,.39,5.82,.71,8.17,.94,2.6,.26,5.33,.49,8.19,.69,.97,7.79,2.13,15.51,3.49,23.17,3.82-7.31,7.38-14.57,10.67-21.76,3.18,.4,5.74,.7,7.68,.89,2.23,.22,4.8,.44,7.7,.64-2.88,5.15-6.47,11.74-10.77,19.77-4.3,8.03-7.79,14.74-10.47,20.12,.51,3.11,1.5,8.4,2.99,15.87,1.48,7.47,2.59,12.75,3.33,15.84l18.34-34.65,13.38-25.96,4.43-8.87c3.51,.44,6.33,.76,8.46,.97,2.35,.23,5.19,.48,8.54,.72l-12.66,22.52-26.64,48.74-6,11.26c-3.91-.47-7.25-.85-10.04-1.13-2.93-.29-6.3-.59-10.12-.88-1.32-8.7-2.87-17.28-4.66-25.73-4.29,7.85-8.41,15.86-12.36,24.03-3.91-.47-7.29-.86-10.15-1.14-3-.3-6.39-.59-10.17-.89Z"/><path class="cls-1" d="M694.58,1320.76l-.4-22.13-1.26-27.6-1.63-27.44c-.06-1.18-.31-4.32-.75-9.42,4.07-.26,7.91-.55,11.5-.86,2.68-.23,6.2-.59,10.57-1.09,4.37-.5,8.15-.89,11.34-1.16,4.33-.37,8.36-.42,12.09-.14,3.73,.28,7.04,1.11,9.93,2.49,2.89,1.39,5.45,3.22,7.67,5.49,2.22,2.27,4.11,4.84,5.64,7.7,1.54,2.86,2.8,6.09,3.79,9.67,.99,3.59,1.65,7.28,1.97,11.07,.62,7.25,.12,14.25-1.5,20.99-1.62,6.74-4.41,12.44-8.37,17.08-3.96,4.65-8.52,7.81-13.67,9.48-5.16,1.67-11.07,2.79-17.74,3.36l-18.7,1.47c-1.17,.1-4.67,.44-10.49,1.02Zm15.71-14.91c3.02-.09,6-.26,8.93-.51,3.33-.29,6.41-.74,9.22-1.36,2.81-.62,5.21-1.43,7.19-2.43,1.98-1,3.92-2.62,5.82-4.86,1.89-2.24,3.39-4.78,4.47-7.61,1.09-2.83,1.84-5.94,2.25-9.33,.41-3.39,.47-6.81,.18-10.27-.54-6.32-1.92-11.44-4.14-15.34-2.22-3.91-4.93-6.62-8.15-8.16-3.21-1.53-8.01-2.02-14.39-1.47-4.14,.35-8.88,.84-14.22,1.47l2.84,59.88Z"/><path class="cls-1" d="M784.35,1311.41l-3.59-24.09-4.82-27.72-4.72-25.14-1.83-8.43c8.9-1.84,18.16-3.81,27.8-5.9l10.34-2.31,15.57-3.44,2.26,13.54-5.19,.8c-1.42,.22-3.37,.58-5.86,1.08-2.49,.5-5.03,1.03-7.62,1.59-5.61,1.22-9.23,2.01-10.86,2.39-1.63,.38-4.09,.98-7.37,1.82l3.89,22.2c4.95-.94,9.93-1.96,14.93-3.04,3.45-.75,9.25-2.14,17.4-4.16,.53,3.83,1.25,8.39,2.18,13.68-9.62,1.96-15.14,3.09-16.54,3.39-4.24,.92-9.5,2.19-15.77,3.81l4.15,23.38,5.95-1.22c1.73-.38,5.67-1.27,11.84-2.7l11.65-2.78,7.73-2.13c.68,4.87,1.41,9.46,2.19,13.74-9.37,1.94-17.8,3.73-25.32,5.36l-17.73,3.91-10.66,2.38Z"/><path class="cls-1" d="M856.1,1294.88c-3.04-12.28-6.96-26.26-11.75-41.92-4.79-15.66-9.2-29.36-13.22-41.08,4.2-1.35,7.71-2.51,10.53-3.48,3.03-1.04,5.97-2.12,8.83-3.23,2.86-1.12,5.91-2.23,9.15-3.34,4.03-1.38,7.73-2.36,11.09-2.94,3.36-.57,6.6-.34,9.71,.69,3.12,1.03,5.73,2.68,7.85,4.95,2.12,2.27,3.79,5.18,5.01,8.74,.77,2.24,1.27,4.45,1.52,6.62,.24,2.18,.22,4.31-.05,6.39-.28,2.08-.79,4.01-1.55,5.76-.76,1.76-1.6,3.23-2.54,4.43-.93,1.19-2.07,2.33-3.41,3.42-1.34,1.09-3.16,2.47-5.46,4.15l6.27,6.7c2.01,2.13,5.74,5.9,11.18,11.32l8.92,8.81c.47,.46,1.93,2,4.38,4.6-4.28,1.38-7.11,2.3-8.46,2.77-1.68,.58-4.61,1.63-8.8,3.16l-11.26-13.98c-1.85-2.09-4.05-4.56-6.62-7.39l-11.31-12.42c-1.09-1.14-2.66-2.89-4.71-5.23,2.5-.32,4.7-.81,6.62-1.47,2.99-1.03,5.53-2.53,7.62-4.5,2.09-1.97,3.39-4.35,3.91-7.15,.52-2.8,.31-5.57-.64-8.33-.58-1.68-1.4-3.14-2.47-4.39-1.07-1.24-2.45-2.13-4.15-2.67-1.7-.53-3.54-.62-5.51-.25-1.97,.37-3.9,.87-5.78,1.51-1.04,.36-2.46,.87-4.26,1.53-1.8,.66-4.02,1.45-6.66,2.35l7.54,24.98,14.47,45.35-8.14,2.66c-1.29,.44-3.9,1.39-7.85,2.83Z"/><path class="cls-1" d="M1001.78,1213.27c1.66,4.73,3.45,9.49,5.38,14.27-3.28,2.75-6.37,5.11-9.28,7.07-2.91,1.97-5.46,3.55-7.66,4.75-4.85,2.64-9.9,4.38-15.16,5.22-5.26,.84-10.57,.54-15.94-.89-5.37-1.44-10.15-4.12-14.34-8.05-4.19-3.93-7.83-8.74-10.93-14.42-3.36-6.17-5.51-12.39-6.45-18.66-.95-6.28-.62-12.19,.99-17.74,1.61-5.55,4.37-10.53,8.29-14.95,3.92-4.42,8.53-8.07,13.82-10.96,5.23-2.85,11.33-5.27,18.28-7.28,1.9,3.25,3.27,5.54,4.11,6.86l3.58,5.78c-4.26,.87-7.71,1.76-10.35,2.67-2.65,.91-5.07,1.96-7.26,3.16-3.46,1.88-6.45,4.29-8.97,7.23-2.53,2.94-4.29,6.39-5.29,10.36-1,3.97-1.14,8.17-.42,12.62,.72,4.45,2.19,8.7,4.39,12.74,2.63,4.83,5.79,8.72,9.49,11.67,3.7,2.95,7.98,4.64,12.84,5.07,4.86,.43,9.93-.78,15.2-3.65,4.88-2.66,10.1-6.95,15.67-12.87Z"/><path class="cls-1" d="M1006.22,1122.14c4.4-3.26,9.15-5.69,14.23-7.3,5.08-1.6,10.35-1.99,15.82-1.17,5.46,.83,10.54,2.74,15.23,5.74,4.69,3,9.1,7.29,13.23,12.86,3.88,5.24,6.83,10.8,8.86,16.69,2.03,5.89,2.74,11.74,2.13,17.53s-2.57,11.2-5.87,16.23c-3.3,5.03-7.46,9.39-12.45,13.09-4.73,3.5-9.84,6.1-15.33,7.8-5.49,1.7-11.02,2.08-16.59,1.15-5.56-.93-10.59-3.01-15.09-6.24-4.49-3.22-8.56-7.3-12.21-12.23-4-5.41-6.98-11.2-8.93-17.39-1.95-6.19-2.47-12.12-1.57-17.79,.91-5.67,2.95-10.97,6.14-15.91,3.19-4.94,7.32-9.29,12.41-13.05Zm7.33,11.39c-4.46,3.3-7.48,7.37-9.04,12.18-1.56,4.82-1.66,9.89-.3,15.22,1.36,5.33,3.81,10.38,7.33,15.14,3.27,4.42,7.09,7.89,11.46,10.42,4.37,2.53,8.94,3.54,13.73,3.02,4.79-.52,9.12-2.21,12.99-5.08,2.93-2.17,5.29-4.81,7.1-7.94,1.81-3.13,2.8-6.59,2.99-10.38,.19-3.8-.46-7.72-1.96-11.78-1.49-4.05-3.57-7.88-6.24-11.49-2.49-3.37-5.32-6.27-8.48-8.72-3.16-2.45-6.49-4.11-9.97-4.98-3.48-.87-6.91-.88-10.29-.04-3.38,.84-6.49,2.32-9.33,4.42Z"/><path class="cls-1" d="M1092.07,1168.45c-2.72-8.24-6.25-18.25-10.6-30.04l-12.08-33.04c-3.7-10.24-7.02-18.98-9.96-26.23,3.47-3.29,5.92-5.63,7.33-7.02,2.49-2.45,4.91-4.87,7.24-7.28l23.8,13,49.83,26.31,6.58,3.32-5.99,5.7c-1.36,1.34-3.63,3.62-6.79,6.84-3.27-2.07-7.82-4.72-13.64-7.95-5.83-3.23-10.61-5.8-14.34-7.71l-20.73,20.33c3.98,10.2,8.17,20.46,12.58,30.77l-6.51,6.21c-1.21,1.19-3.45,3.45-6.73,6.78Zm-5.08-56.61l15.09-14.8-26.76-14.89,4.29,10.75,7.38,18.94Z"/><path class="cls-1" d="M1172.18,1084.67l-13.75-12.47-20.86-18.11-20.79-17.5-2.4,3.02-2.18,2.84-2.08,2.71-7.57,10.24c-4.59-4.02-8.11-7.03-10.57-9.03,6.65-8.24,13.58-16.89,20.79-25.96l12.27-15.54,6.54-8.33c4.48,4.03,8,7.06,10.54,9.08-4.44,4.98-8.56,9.86-12.36,14.64l-2.64,3.33,8.67,7.72,33.93,28.98,5.79,4.74c2.39,1.95,4.89,3.96,7.5,6.03l-5.32,6.5c-.57,.72-2.41,3.1-5.5,7.13Z"/><path class="cls-1" d="M1203.71,1042.86c-11.6-8.83-23.6-17.72-36-26.69-12.4-8.96-21.96-15.7-28.67-20.19l-5.67-3.73,5.24-7.59c.29-.43,1.82-2.79,4.6-7.09,17.65,13.63,41.11,30.48,70.38,50.57l-4.62,6.67c-.76,1.13-2.5,3.82-5.24,8.05Z"/><path class="cls-1" d="M1224.84,1012.29c-6.36-4.17-13.62-8.63-21.77-13.38l-26.86-15.72c-9.73-5.67-18.46-10.56-26.19-14.68,2.08-3.72,3.81-6.9,5.21-9.53,1.04-1.95,2.51-4.81,4.42-8.58,9.31,.24,21.61,.28,36.89,.1,15.28-.17,27.86-.17,37.73,0l-51.04-29.44c-1.21-.69-3.28-1.8-6.19-3.35,1.7-3.02,2.97-5.31,3.8-6.87,.33-.62,1.5-2.91,3.52-6.89l19.91,12.15,34.38,20.22,20.42,11.61c-1.87,3.34-3.44,6.19-4.7,8.56-1,1.88-2.59,4.96-4.76,9.22-4.19-.14-7.31-.22-9.37-.23-3.17,.02-9.76,.16-19.77,.42-6.6,.16-15,.27-25.2,.35-7.5,.05-14.02,.05-19.54-.02,5.91,3.48,16.92,9.85,33.03,19.12,6.57,3.78,14.37,8.16,23.41,13.13-1.7,3.02-2.91,5.21-3.64,6.57-.57,1.07-1.8,3.48-3.7,7.23Z"/><path class="cls-1" d="M1236,870.46c1.79-4.75,3.46-9.31,5.02-13.68,2.04-5.72,3.7-10.49,4.98-14.33,13.02,5.67,27.61,11.61,43.77,17.81-.74,6.22-1.67,11.74-2.78,16.58-1.12,4.83-2.26,8.88-3.42,12.13-2.18,6.1-4.93,11.49-8.27,16.17-3.33,4.69-7.3,8.24-11.89,10.66-4.59,2.42-9.92,3.61-16,3.57-6.07-.04-12.12-1.13-18.13-3.28-5.14-1.83-9.85-4.31-14.13-7.42-4.28-3.11-7.92-6.75-10.92-10.93-3-4.18-5.13-8.69-6.39-13.53-1.26-4.84-1.59-9.63-1-14.36,.59-4.73,1.75-9.54,3.5-14.42,2.4-6.72,6.19-14.08,11.38-22.07,4.54,1.58,9.34,3.08,14.43,4.51-6.07,7.05-10.28,13.89-12.64,20.5-1.52,4.26-2.26,8.54-2.22,12.83,.04,4.29,1.03,8.34,2.98,12.13,1.95,3.8,4.82,7.19,8.63,10.17,3.81,2.98,8.02,5.3,12.65,6.95,5.14,1.83,10.03,2.65,14.66,2.45,4.63-.2,8.75-1.84,12.37-4.93,3.62-3.08,6.32-7.14,8.11-12.16,.65-1.84,1.24-4.07,1.75-6.7,.51-2.63,.79-5.46,.84-8.49l-20.67-8.34-1.53,4.09c-.83,2.33-1.82,5.3-2.98,8.91-5.23-2.22-9.25-3.83-12.08-4.84Z"/></g><path class="cls-1" d="M673.88,912.71c63.1,0,114.25,48.91,114.25,109.24h222.59c2.52-35.3,3.83-71.45,3.83-108.24,0-396.65-152.03-718.2-339.56-718.2s-339.56,321.55-339.56,718.2c0,36.79,1.31,72.94,3.83,108.24h220.36c0-60.33,51.15-109.24,114.25-109.24Zm-4-370.68c63.1,0,114.25,48.91,114.25,109.24s-51.15,109.24-114.25,109.24-114.25-48.91-114.25-109.24,51.15-109.24,114.25-109.24Z"/><path class="cls-1" d="M110.9,753.4c0,15.91-12.89,28.8-28.8,28.8s-28.8-12.89-28.8-28.8,12.89-28.8,28.8-28.8,28.8,12.89,28.8,28.8Z"/><path class="cls-1" d="M1299.83,753.41c0,15.91-12.89,28.8-28.8,28.8s-28.8-12.89-28.8-28.8,12.89-28.8,28.8-28.8,28.8,12.89,28.8,28.8Z"/><g><path class="cls-1" d="M446.33,1058.98c-3.03-3.04-6.11-5.28-9.23-6.7-3.11-1.44-6.46-2.15-10.03-2.15-4.41,0-7.99,.97-10.75,2.95-2.73,1.98-4.12,4.55-4.12,7.69,0,2.79,1.16,5.36,3.49,7.74,2.28,2.37,6.45,5.27,12.46,8.72,7.85,4.48,13.43,8.72,16.71,12.71,3.25,3.98,4.87,8.52,4.87,13.63,0,7.53-2.23,13.51-6.69,18-4.47,4.5-10.44,6.73-17.91,6.73-4.69,0-8.98-.68-12.82-2.06-3.87-1.37-7.8-3.59-11.78-6.64v-15.41c3.78,4.29,7.61,7.46,11.5,9.53,3.89,2.07,7.92,3.12,12.12,3.12s7.47-1.07,10.05-3.19c2.57-2.14,3.86-4.92,3.86-8.34,0-3.12-1.16-5.92-3.51-8.48-2.27-2.48-6.44-5.46-12.47-8.89-7.87-4.48-13.44-8.65-16.73-12.53-3.21-3.81-4.83-8.11-4.83-12.9,0-7.23,2.41-13,7.23-17.36,4.82-4.35,11.26-6.5,19.33-6.5,3.44,0,6.65,.46,9.6,1.41,2.96,.92,6.17,2.49,9.67,4.7v14.21Z"/><path class="cls-1" d="M467.99,1045.08c1.91,0,3.53,.66,4.86,1.99,1.33,1.33,2,2.94,2,4.86s-.68,3.53-2,4.84c-1.33,1.33-2.95,2.01-4.86,2.01s-3.53-.68-4.86-2.01c-1.33-1.31-1.99-2.92-1.99-4.84s.66-3.54,1.99-4.86c1.33-1.32,2.95-1.99,4.86-1.99Zm-5.67,24.61h11.35v57.31h-11.35v-57.31Z"/><path class="cls-1" d="M489.61,1069.69h11.34v8.15c5.44-6.35,10.97-9.52,16.57-9.46,6.63,0,11.7,2,15.13,6.04,3.44,4.04,5.17,9.94,5.17,17.7v34.89h-11.34v-35.69c0-4.37-.95-7.71-2.86-9.99-1.91-2.31-4.7-3.48-8.35-3.48-4.74,0-9.14,2.45-13.21,7.35l-1.11,1.37v40.44h-11.34v-57.31Z"/><path class="cls-1" d="M597.03,1124.14c-3.03,1.55-5.75,2.61-8.15,3.25-2.41,.61-5.09,.92-8.04,.92-8.81,0-16-2.78-21.58-8.37-5.59-5.61-8.39-12.77-8.39-21.54s2.52-16.02,7.54-21.62c5.02-5.59,11.49-8.41,19.44-8.41,2.94,0,5.67,.3,8.16,.93,2.49,.62,5.39,1.69,8.72,3.24v12.16c-2.63-2.13-5.12-3.66-7.5-4.58-2.38-.95-4.93-1.41-7.64-1.41-5.02,0-9.12,1.82-12.29,5.48-3.17,3.67-4.77,8.39-4.77,14.21s1.76,10.48,5.28,14.12c3.55,3.63,8.1,5.44,13.7,5.44,2.83,0,5.47-.46,7.91-1.39,2.46-.94,4.98-2.48,7.61-4.58v12.15Z"/><path class="cls-1" d="M636.67,1128.31c-8.77,0-15.95-2.78-21.53-8.37-5.59-5.61-8.39-12.77-8.39-21.54s2.41-16.02,7.23-21.62c4.82-5.59,11.01-8.41,18.56-8.41,8.27,0,14.66,2.6,19.13,7.81,4.49,5.23,6.74,12.63,6.74,22.22v2.06h-39.83c.45,4.62,2.15,8.47,5.09,11.59,3.49,3.62,7.99,5.42,13.51,5.42,3.94,0,7.61-.69,10.98-2.08,3.4-1.38,6.81-3.6,10.25-6.63v11.97c-3.57,2.7-7.07,4.64-10.48,5.82-3.41,1.19-7.16,1.78-11.26,1.78Zm10.87-35.38c-.5-4.01-1.61-7.16-3.36-9.53-2.5-3.41-6.15-5.12-11.01-5.12-4.36,0-7.88,1.83-10.63,5.48-1.87,2.45-3.11,5.5-3.72,9.16h28.71Z"/><path class="cls-1" d="M723.88,1038.66h12.47v88.34h-12.47v-88.34Z"/><path class="cls-1" d="M786.04,1128.31l-7.55-9.15c9.65-6.31,17-13.85,22.01-22.55,1.92-3.37,3.54-6.88,4.75-10.52-4.18,2.6-8.95,3.9-14.3,3.9-7.3,0-13.21-2.34-17.71-7.07-4.48-4.71-6.73-10.93-6.73-18.66,0-7.02,2.56-13.03,7.69-18.08,5.13-5.02,11.24-7.53,18.36-7.53,8.26,0,15.01,2.97,20.28,8.91,5.22,5.92,7.88,13.57,7.88,22.87,0,11.02-3.08,21.61-9.22,31.83-6.13,10.23-14.62,18.9-25.47,26.05Zm7.01-77.75c-4.18,0-7.61,1.27-10.25,3.8-2.64,2.53-3.97,5.82-3.97,9.9s1.38,7.39,4.14,9.98c2.75,2.56,6.28,3.86,10.66,3.86,5.49,.04,10.18-1.61,14.09-4.91,.15-1.69,.21-3.49,.21-5.36,0-4.95-1.41-9.06-4.21-12.35-2.86-3.28-6.39-4.91-10.68-4.91Z"/><path class="cls-1" d="M837.56,1122.65l33.06-70.86h-38.7v-11.82h56.33l-39.32,88.03-11.37-5.35Z"/><path class="cls-1" d="M901.02,1116.02c-5.15-8.2-7.72-19.05-7.72-32.5s2.57-24.3,7.72-32.52c5.17-8.23,11.95-12.33,20.39-12.33s15.2,4.1,20.37,12.33c5.14,8.22,7.72,19.06,7.72,32.52s-2.57,24.3-7.72,32.5c-5.17,8.2-11.96,12.29-20.37,12.29s-15.22-4.09-20.39-12.29Zm31.79-8.77c2.91-6.1,4.37-14.01,4.37-23.73s-1.46-17.68-4.37-23.79c-2.91-6.11-6.71-9.16-11.4-9.16s-8.45,3.06-11.37,9.16c-2.92,6.11-4.4,14.01-4.4,23.79s1.48,17.63,4.4,23.73c2.92,6.11,6.7,9.17,11.37,9.17s8.49-3.06,11.4-9.17Z"/></g></g></g></svg>