<?xml version="1.0" encoding="utf-8"?>
<!-- Generator: Adobe Illustrator 27.2.0, SVG Export Plug-In . SVG Version: 6.00 Build 0)  -->
<svg version="1.1" id="Layer_1" xmlns="http://www.w3.org/2000/svg" xmlns:xlink="http://www.w3.org/1999/xlink" x="0px" y="0px"
	 viewBox="0 0 330.67 151.33" style="enable-background:new 0 0 330.67 151.33;" xml:space="preserve">
<style type="text/css">
	.st0{fill:#FFFFFF;}
	.st1{fill:#002F87;}
</style>
<g>
	<g id="XMLID_67_">
		<path id="XMLID_107_" class="st0" d="M72.14,119.23c-17.23-10.25-38.96-25.14-38.96-51.44V40.02c7.95-3.01,20.23-6.77,38.96-6.77
			c18.95,0,31.95,4.1,38.96,6.77v27.77C111.1,94.31,88.53,109.59,72.14,119.23z"/>
	</g>
	<path class="st1" d="M126.77,55.24h-2.35v-3.48h10.95c5.76,0,8.77,3.03,8.77,7.33c0,5.11-4.03,7.33-8.77,7.33h-3.63v5.73h2.35v3.48
		h-9.68v-3.48h2.35V55.24z M134.86,62.95c2.49,0,4.11-1.43,4.11-3.85c0-2.2-1.42-3.85-4.18-3.85h-3.05v7.7H134.86z M150.23,67.79
		c0.14,2.83,2.32,4.57,5.66,4.57c2.94,0,4.74-0.81,5.52-1.13v3.68c-0.73,0.29-2.71,1.12-6.58,1.12c-6.89,0-9.78-4.3-9.78-9.24
		c0-5.56,3.37-9.41,8.97-9.41c6.14,0,8.62,4.64,8.62,10.4H150.23z M157.45,64.52c0-2.45-1.4-3.85-3.61-3.85
		c-2.18,0-3.44,1.43-3.65,3.85H157.45z M282.36,67.79c0.14,2.83,2.32,4.57,5.66,4.57c2.94,0,4.74-0.81,5.52-1.13v3.68
		c-0.73,0.29-2.71,1.12-6.58,1.12c-6.89,0-9.78-4.3-9.78-9.24c0-5.56,3.37-9.41,8.97-9.41c6.14,0,8.62,4.64,8.62,10.4H282.36z
		 M289.58,64.52c0-2.45-1.4-3.85-3.61-3.85c-2.18,0-3.44,1.43-3.65,3.85H289.58z M167.06,61.28h-2.32V57.8h6.55l0.13,2.33h0.07
		c0.32-0.49,1.87-2.74,5.48-2.74c4.52,0,6.9,3.19,6.9,7.11v7.65h2.05v3.48h-8.76v-3.48h1.94v-6.83c0-2.49-1.38-3.84-3.64-3.84
		c-2.04,0-3.62,1.15-3.62,3.84v6.83h2.05v3.48h-8.76v-3.48h1.94V61.28z M190.3,61.28h-2.32V57.8h6.55l0.13,2.33h0.07
		c0.32-0.49,1.87-2.74,5.48-2.74c4.52,0,6.9,3.19,6.9,7.11v7.65h2.05v3.48h-8.76v-3.48h1.94v-6.83c0-2.49-1.38-3.84-3.64-3.84
		c-2.04,0-3.62,1.15-3.62,3.84v6.83h2.05v3.48h-8.76v-3.48h1.94V61.28z M266.38,53.98h4.77v3.82h4.77v3.48h-4.77v7.94
		c0,2.39,0.84,3.14,2.81,3.14c0.74,0,1.75-0.2,2.13-0.27v3.39c-0.39,0.12-2.13,0.57-3.93,0.57c-3.51,0-5.78-1.89-5.78-5.02v-9.74
		h-2.42V57.8h2.42V53.98z M234.22,53.98H239v3.82h4.77v3.48H239v7.94c0,2.39,0.84,3.14,2.81,3.14c0.74,0,1.75-0.2,2.13-0.27v3.39
		c-0.39,0.12-2.13,0.57-3.93,0.57c-3.51,0-5.78-1.89-5.78-5.02v-9.74h-2.42V57.8h2.42V53.98z M256.89,64.28
		c0-2.46-1.2-3.41-3.61-3.41c-1.54,0-2.64,0.4-2.96,0.51v2.39h-3.87v-4.53c0.64-0.36,3.5-1.84,6.77-1.84c4.97,0,8.16,2.02,8.16,7.01
		c0,2.93,0,7.75,0,7.75h1.84v3.48h-5.77l-0.14-2.43h-0.07c-0.35,0.5-1.66,2.84-5.68,2.84c-4.02,0-5.97-2.39-5.97-5.18
		c0-3.39,2.6-5.72,9.14-5.72c0.28,0,1.84,0,2.14,0V64.28z M255.49,68.06c-3.89,0-5.11,0.82-5.11,2.35c0,1.06,0.75,2.15,2.62,2.15
		c1.91,0,3.82-1.5,3.82-4.5H255.49z M224.61,55.41c-0.36-0.13-1.76-0.58-3.04-0.58c-2.78,0-3.89,1.51-3.89,2.84
		c0,1.74,1.29,2.54,2.78,2.92l2.37,0.62c3.34,0.89,7.03,2.3,7.03,7.25c0,4.53-2.91,7.58-9.36,7.58c-2.49,0-5.08-0.27-8.13-1.33V68.4
		h4.28v3.08c0.68,0.19,2.62,0.67,4.27,0.67c2.53,0,3.76-1.06,3.76-2.86c0-1.49-0.84-2.58-3.89-3.39l-2.04-0.56
		c-4.66-1.26-6.25-3.5-6.25-7.19c0-3.78,2.53-6.79,8.94-6.79c2.75,0,5.51,0.48,7.45,1.26v5.69h-4.28V55.41z M85.58,56.89
		c-0.07-0.04-0.32-0.13-0.32-0.38c0-0.29,0.21-0.59,0.63-1.15c0.98-1.31,2.32-2.91,2.81-2.91c0.24,0,0.39,0.16,0.69,0.73
		c0.18,0.33,0.33,0.89,0.33,1.42c0,1.74-0.6,2.96-1.53,4.34C87.71,58.48,86.85,57.62,85.58,56.89z M56.95,60.13
		c0.44,0,0.77-0.29,1.43-1.02c1.48-1.64,2.91-1.86,2.91-2.56c0-0.31-0.2-0.62-0.41-0.94c-1.58-2.47-2.25-3.8-3.19-5.59
		c-0.34-0.65-0.78-1.09-1.12-1.09c-0.55,0-1.12,0.64-1.46,1.18c-0.47,0.77-0.94,1.64-0.94,2.43c0,1.19,0.29,3.37,0.79,4.76
		C55.5,58.81,56.28,60.13,56.95,60.13z M83.3,93.14c-0.33,0.08-0.99,0.24-3.91,0.24c-4.42,0-5.17-1.09-5.17-1.95
		c0-1.44,6.34-2.45,8.84-2.45c2.39,0,3.45,0.77,3.45,1.35C86.51,91.02,85.43,92.63,83.3,93.14z M57.79,106.09
		c4.6,3.59,9.53,6.77,14.35,9.65l0,0l0,0c0.04-4.33-0.1-6.89,2.84-9.96c1.19-1.24,2.41-2.51,3.52-3.65c0.83-0.86,1.51-1.51,1.9-1.51
		c0.28,0,0.41,0.15,0.41,0.52c0,0.39,0.17,1.81,1.05,3.51c1.1,2.11,2.72,2.39,3.23,2.51c12.56-9.45,23.06-21.83,23.06-39.43
		c0-9.66,0-25.65,0-25.65c-3.1-1.05-15.82-5.93-36.01-5.93s-32.91,4.88-36.01,5.93c0,0,0,15.99,0,25.65
		c0,7.74,2.03,14.46,5.37,20.38c0.33-3.56,2.74-5.25,2.74-8.75c0-2.44-0.69-3.99-0.69-6.03c0-3.7,4.99-11.31,7.58-14.41
		c0.08-0.09,0.24-0.31,0.45-0.31c0.19,0,0.33,0.13,0.44,0.3c0.26,0.4,0.38,0.62,0.66,0.62c0.28,0,0.39-0.16,0.39-0.41
		c0-0.64-0.75-1.72-0.75-5.92c0-2.94,0.68-3.56,2.51-5.35c0.33-0.33,1.36-1.31,2.33-1.31c1.08,0,1.62,0.64,2.29,1.32
		c1.13,1.15,2.7,3.18,2.96,3.51c0.07,0.09,0.14,0.17,0.29,0.17c0.52,0,0.96-0.16,3.23-0.16c4.12,0,10.33,0.65,13.53,1.69
		c1.64,0.54,1.99,0.91,2.42,0.91c0.21,0,0.23-0.14,0.23-0.25c0-0.21-0.43-0.54-0.43-0.83c0-0.19,0.15-0.33,0.3-0.41
		c2.38-1.28,4.41-2.25,6.27-2.25c1.08,0,1.62,0.94,2.07,1.86c0.36,0.72,0.74,1.69,0.74,2.69c0,2.52-0.96,4.06-1.73,5.14
		c0.37,0.38,0.89,0.95,1.21,1.33c0.57,0.67,1.24,1.56,1.24,2.47c0,0.4-0.19,1.02-0.3,1.51c-0.05,0.22-0.24,0.66-0.63,0.66
		c-0.35-0.01-0.44-0.39-0.45-0.72c0-0.07,0-0.22,0-0.25c0-0.73-0.2-1.71-0.88-2.4c-0.78-0.79-1.49-1.37-2.38-1.37
		c-0.05,0-0.24,0-0.31,0c-1.47,0-2.14,0.64-2.55,1.04c-0.44,0.43-0.79,1.01-0.79,1.78c0,0.44,0.3,0.97,0.71,1.78
		c0.24,0.48,0.85,1.61,1.18,2.19c0.29,0.51,0.66,0.69,1.08,0.69c1.03,0,1.92-0.14,1.92-0.45c0-0.08-0.05-0.16-0.19-0.16
		c-0.06,0-0.2,0.02-0.33,0.02c-1.34,0-2.06-1.71-2.73-3.25c0.51-0.5,1.09-1.01,2.14-1.01c1.33,0,2.21,0.9,2.21,2.06
		c0,0.58-0.18,1.06-0.28,1.28c-0.05,0.11-0.08,0.18-0.08,0.24c0,0.18,0.23,0.22,0.6,0.3c0.13,0.03,0.38,0.09,0.53,0.13
		c0.39,0.11,0.81,0.45,0.99,0.93c0.12,0.31,0.39,1.04,0.44,1.21c0.22,0.66,0.58,1.62,0.58,2.77c0,1.17-0.09,1.53-0.4,2.72
		c-0.06,0.24-0.17,0.74-0.48,0.74c-0.42,0-1.01-1.02-1.49-1.02c-0.18,0-0.3,0.12-0.3,0.27c0,0.15,0.09,0.3,0.14,0.39
		c0.74,1.26,1.38,2.42,1.68,3.05c0.23,0.48,0.53,1.37,0.53,2.33c0,0.26,0,0.76,0,0.79c0,1.53-0.61,2.71-1.27,3.6
		c-0.51,0.69-1.25,1.67-1.67,2.21c-0.27,0.33-0.64,0.56-1.05,0.56c-0.2,0-0.43-0.07-0.66-0.12c-0.26-0.06-0.8-0.2-1.04-0.26
		c-0.9-0.23-1.23-0.81-1.52-1.6c-0.04-0.12-0.18-0.45-0.22-0.56c-0.21-0.55-0.34-0.9-0.68-0.9c-0.25,0-0.5,0.17-0.75,0.55
		c-0.9,1.35-1.38,1.84-2.96,2.23c-0.55,0.14-1.67,0.37-2.3,0.51c-0.95,0.21-2.63,0.65-3.58,0.65c-0.2,0-0.41-0.01-0.63-0.04
		c-1.3-0.18-2.22-0.27-3.83-2.19c-2.22-2.65-1.99-3.02-2.12-6.6c-0.01-0.4-0.15-0.9-0.56-0.9c-0.37,0-0.53,0.76-0.67,1.83
		c-0.16,1.26-0.45,2.57-1.07,2.57c-0.43,0-0.73-0.07-1.39-0.28c-0.81-0.26-2.82-0.94-3.87-1.29c-1.44-0.48-2.82-0.85-3.37-2.13
		c-0.26-0.6-0.74-1.72-0.99-2.3c-0.17-0.41-0.3-0.62-0.57-0.62c-0.38,0-0.47,0.45-0.51,0.81c-0.05,0.41-0.15,1.34-0.2,1.93
		c-0.22,2.49-0.71,3.55-1.77,4.94c-0.48,0.64-0.94,1.29-1.48,1.99c-1.11,1.47-1.77,2.96-1.74,5.8c0,0.18-0.01,1.24,0,1.73
		C49.6,98.34,50.67,100.41,57.79,106.09z M88.6,76.73c-0.51-0.09-1.61-0.28-2.91-0.28c-0.91,0-1.59,0.04-2.11,0.11
		c-0.07,0.01-0.32,0.06-0.53,0.06c-0.57,0-0.74-0.59-1-1.26c-0.93-2.45-2.38-6.21-3.73-9.08c-0.62-1.31-1.2-2.49-2.11-3.41
		c-0.33-0.4-0.85-0.83-1.52-1.4c-0.63-0.53-1.35-0.93-2.78-0.93c-0.12,0-0.78,0-0.87,0c-1.19,0-1.94,0.14-2.94,0.73
		c-0.27,0.16-0.81,0.48-1.01,0.6c-1.76,1-2.22,2.31-2.52,2.9c-0.09,0.17-0.21,0.41-0.32,0.64c-0.2,0.42-0.3,0.79-0.3,1.13
		c0,0.53,0.27,0.92,0.86,0.9c0.72-0.03,1.3-0.22,1.8-0.29c0.51,0.67,1.66,1.46,3.59,1.46c0.61,0,0.89-0.14,0.89-0.41
		c0-0.19-0.23-0.2-0.45-0.27c-1.7-0.52-2.11-1.39-2.54-2.21c0.35-1.05,1.71-2.39,3.49-2.39c2,0,3.14,1.49,3.14,2.51
		c-0.15,0.38-0.36,1.05-0.83,1.43c-0.14,0.11-0.27,0.17-0.27,0.29c0,0.09,0.05,0.18,0.21,0.18l0,0l0,0c0.42,0,0.77-0.2,1.17-0.2
		c0.72,0,1.22,0.91,1.85,2.57c0.62,1.63,1.64,4.02,2.24,6.03c0.05,0.18,0.14,0.48,0.14,0.8c0,0.37-0.13,0.58-0.13,0.97
		c0,0.44,0.17,0.93,0.6,1.25v0c0.24,0.19,0.97,0.19,2.5,0.4c0.93,0.13,2.12,0.44,2.12,1.41c0,0.82-0.48,1.73-0.48,2.32
		c0,0.24,0.14,0.34,0.28,0.34c0.73,0.03,1.72-1.25,2.29-2.89c0.27-0.76,1.01-0.88,1.62-1.01c0.14-0.03,0.43-0.08,0.64-0.13
		c0.83-0.18,1.3-0.47,1.3-1.04c0-0.14,0-0.44,0-0.56C89.98,77.43,89.79,76.94,88.6,76.73z"/>
</g>
</svg>
