<?xml version="1.0" encoding="UTF-8"?><svg id="Layer_2" xmlns="http://www.w3.org/2000/svg" viewBox="0 0 748.24 495.06"><defs><style>.cls-1{fill:#fff;}.cls-2{fill:#0056a3;}.cls-3{fill:#a39161;}</style></defs><g id="Layer_4"><path class="cls-2" d="M522.44,451.59c-51.17,0-100.58-17.37-140.47-49.14-35.99,27.25-86.45,40.5-154.1,40.5-63.7,0-108.18-12.62-139.98-39.72-24.55-20.92-39.5-48.56-45.73-84.5l-.25-1.41c-.52-2.97-.62-6-.3-8.99l3.82-35.82c.65-6.07,2.93-11.67,6.5-16.31-1.22-4.53-1.46-9.32-.63-14.07L89.15,26.79C91.88,11.27,105.3,0,121.06,0H416.26c9.18,0,17.96,3.91,24.1,10.74,1.03,1.14,1.97,2.36,2.81,3.63,25.3-9.54,51.89-14.37,79.27-14.37,124.5,0,225.8,101.29,225.8,225.79s-101.29,225.8-225.8,225.8h0ZM238.27,261.88c.97,2.02,1.74,4.14,2.28,6.33,.52-4.29,1.11-9.29,1.29-13.94-.35,.04-.68,.09-1,.13l-.16,.7c-.55,2.35-1.36,4.62-2.41,6.78h0Z"/><rect class="cls-2" y="412.26" width="746.31" height="82.8" rx="14.4" ry="14.4"/></g><g id="Layer_4_copy"><path class="cls-1" d="M522.44,14.4c-31.49,0-61.38,6.93-88.25,19.33,.36-4.88-1.26-9.71-4.54-13.36-3.41-3.8-8.28-5.97-13.39-5.97H121.06c-8.74,0-16.22,6.28-17.73,14.89l-37.83,215.32c-.92,5.24,.52,10.62,3.94,14.69,.12,.15,.25,.3,.38,.44-5.44,2.63-9.38,7.93-10.06,14.29l-3.82,35.82c-.18,1.67-.12,3.35,.17,5l.25,1.42c5.63,32.49,19,57.35,40.88,76,29.05,24.75,70.56,36.28,130.64,36.28,66.05,0,114.45-12.94,147.96-39.57,2.13-1.69,4.19-3.47,6.21-5.29,37.36,33.26,86.55,53.5,140.39,53.5,116.56,0,211.4-94.83,211.4-211.4S639,14.4,522.44,14.4Z"/></g><g id="Layer_2-2"><path class="cls-3" d="M338.96,148.07c-16.1-4.65-34.86-6.96-56.5-6.96-25.27,0-46.55,3.82-67.63,12.42l6.5-35.9h133.93c14.8-22.65,34.11-42.08,56.67-57.02l3.01-28.22H119.74l-37.83,215.32h125.9l1.47-6.29c2.99-12.78,15.79-19.82,36.03-19.82,10.22,0,17.43,2.18,21.43,6.48,8.87,9.52,6.17,31.63,4.55,44.83-.25,2.02-.48,3.92-.66,5.66-2.73,25.54-9.54,51.65-39.4,51.66-1.32,0-2.7-.05-4.09-.15-4.92-.36-11.47-1.51-14.69-4.96-4.85-5.19-4.4-17.31-4.07-26.16,.14-3.85,.28-7.5,.08-10.87l-.71-12.15H76.34l-3.82,35.82,.25,1.44c4.88,28.18,16.27,49.56,34.82,65.37,25.6,21.82,63.41,31.98,118.96,31.98,61.82,0,106.56-11.66,136.77-35.66,5.04-4,9.68-8.36,13.92-13.08-33.55-35.47-54.12-83.34-54.12-136.01,0-27.59,5.65-53.86,15.85-77.72Z"/></g><g id="AF_Logo_CLEAN_2_Image"><g><path class="cls-2" d="M714.51,225.79c0,106.81-86.59,193.4-193.4,193.4s-193.39-86.59-193.39-193.4S414.31,32.4,521.12,32.4s193.4,86.59,193.4,193.39Z"/><g><path class="cls-1" d="M367.39,227.88l-32.8-10.02,.81-10.8,33.93-5.02-.7,9.34-4.96,.36-.42,5.67,4.86,1.1-.7,9.37Zm-10.83-11.91l.29-3.81-12.51,1.01,12.22,2.8Z"/><path class="cls-1" d="M337.12,193l1.69-6.95c.82-3.38,1.75-5.88,2.78-7.5,1.03-1.62,2.44-2.95,4.22-3.99,1.61-.9,3.52-1.42,5.75-1.54,2.23-.12,4.72,.16,7.47,.83,5.37,1.31,9.13,3.49,11.28,6.52,2.15,3.04,2.65,6.88,1.51,11.54l-2.2,9.02-32.51-7.93Zm10.07-7.46l16.5,4.03,.1-.41c.35-1.42,0-2.57-1.04-3.45-1.05-.88-3.11-1.69-6.2-2.45-3.18-.77-5.43-1.01-6.75-.7-1.33,.31-2.17,1.2-2.53,2.66l-.08,.32Z"/><path class="cls-1" d="M344.47,164.64l3.81-8.82,21.49,5.38-18.63-11.99,3.8-8.8,27.59,20.51-4.23,9.77-33.83-6.06Z"/><path class="cls-1" d="M384.72,155.5l-24.2-24.32,5.81-9.15,32.28,11.58-5.02,7.91-4.55-2.02-3.05,4.8,3.77,3.26-5.03,7.93Zm-3.93-15.61l2.05-3.23-11.5-5.01,9.46,8.24Z"/><path class="cls-1" d="M399.36,132.79l-24.85-22.4,6.42-7.12,16.62,7.84-13.07-11.78,5.85-6.49,24.86,22.4-6.34,7.03-16.03-7.23,12.44,11.22-5.89,6.54Z"/><path class="cls-1" d="M431.92,100.93c-.49,.9-1.01,1.71-1.58,2.42-.56,.72-1.19,1.35-1.88,1.9-1.34,1.09-2.84,1.87-4.51,2.35-1.66,.47-3.42,.62-5.26,.44-2.21-.23-4.32-.97-6.33-2.23-2.01-1.25-3.97-3.07-5.9-5.44-3.18-3.93-4.78-7.94-4.77-12.02,0-4.08,1.56-7.38,4.67-9.9,.77-.62,1.57-1.17,2.41-1.65,.84-.48,1.71-.88,2.61-1.22l5.05,6.23c-.67,.13-1.29,.31-1.86,.56-.57,.25-1.07,.54-1.49,.89-1.5,1.21-2.13,2.73-1.91,4.57,.21,1.84,1.28,3.94,3.2,6.3,1.81,2.23,3.58,3.65,5.34,4.24,1.75,.6,3.32,.33,4.72-.8,.51-.41,.95-.89,1.32-1.42,.37-.53,.67-1.12,.9-1.76l5.28,6.52Z"/><path class="cls-1" d="M434.62,99.79l-17.38-28.59,14.62-8.89,4.22,6.93-6.36,3.86,2.21,3.64,5.73-3.48,4.07,6.7-5.73,3.48,2.39,3.94,6.36-3.86,4.48,7.38-14.62,8.89Z"/><path class="cls-1" d="M439.09,58.43l6.61-2.75c3.21-1.34,5.77-2.07,7.68-2.2,1.92-.13,3.82,.22,5.71,1.03,1.68,.76,3.23,2,4.64,3.73,1.42,1.73,2.67,3.9,3.76,6.5,2.13,5.11,2.6,9.42,1.43,12.95-1.18,3.53-3.98,6.21-8.41,8.06l-8.57,3.56-12.86-30.89Zm11.97,3.71l6.53,15.68,.39-.16c1.35-.56,2.07-1.52,2.16-2.89,.09-1.36-.47-3.51-1.69-6.44-1.26-3.02-2.41-4.97-3.44-5.85-1.03-.88-2.25-1.04-3.64-.46l-.31,.13Z"/><path class="cls-1" d="M488.47,76.59l-5.38-33.02,16.85-2.74,1.31,8-7.36,1.2,.78,4.77,6.46-1.05,1.27,7.78-6.45,1.05,2.03,12.47-9.48,1.54Z"/><path class="cls-1" d="M508.45,73.76l-1.67-33.42,9.62-.48,1.67,33.42-9.62,.48Z"/><path class="cls-1" d="M522.4,72.88l2.81-33.34,9.55,.8,3.81,17.98,1.48-17.54,8.7,.73-2.81,33.34-9.43-.79-3.93-17.14-1.4,16.69-8.77-.74Z"/><path class="cls-1" d="M550.1,75.98l7.32-32.65,9.4,2.11-7.32,32.65-9.4-2.11Z"/><path class="cls-1" d="M566.48,68.25c.94,1.45,1.87,2.62,2.77,3.53,.91,.9,1.77,1.5,2.59,1.78,.72,.26,1.4,.26,2.01,0,.62-.25,1.04-.7,1.26-1.33,.26-.75-.14-2.12-1.21-4.12-.03-.06-.05-.1-.06-.12-1.86-3.39-2.94-5.89-3.24-7.5-.3-1.61-.18-3.2,.37-4.75,.94-2.67,2.64-4.53,5.11-5.6,2.47-1.07,5.16-1.09,8.09-.06,1.15,.4,2.28,.97,3.39,1.7,1.12,.73,2.23,1.63,3.32,2.7l-2.88,8.19c-.79-1.22-1.59-2.2-2.39-2.96-.8-.76-1.59-1.28-2.38-1.55-.68-.24-1.3-.26-1.83-.05-.54,.2-.91,.59-1.11,1.15-.29,.81,.15,2.08,1.29,3.81,.08,.14,.15,.25,.19,.31,1.96,3.05,3.1,5.4,3.43,7.05,.32,1.64,.16,3.39-.49,5.23-1.08,3.08-2.96,5.21-5.62,6.37-2.66,1.16-5.65,1.16-8.96,0-1.28-.45-2.46-1.08-3.56-1.91-1.1-.82-2.15-1.87-3.17-3.16l3.06-8.71Z"/><path class="cls-1" d="M583.47,86.05l15.89-29.45,8.48,4.57-5.71,10.57,3.62,1.95,5.7-10.57,8.46,4.56-15.89,29.44-8.46-4.56,6.21-11.51-3.61-1.95-6.21,11.52-8.48-4.57Z"/><path class="cls-1" d="M607.38,99.8l19.72-27.03,7.78,5.68-19.72,27.03-7.78-5.68Z"/><path class="cls-1" d="M618.77,107.89l23.19-24.12,6.91,6.64-8.37,16.37,12.2-12.69,6.29,6.05-23.2,24.12-6.82-6.56,7.75-15.79-11.61,12.07-6.34-6.1Z"/><path class="cls-1" d="M667.9,134.59s-.06,.04-.11,.08c-1,.81-1.75,1.4-2.26,1.77-4.71,3.45-8.78,5.21-12.22,5.27-3.44,.06-6.37-1.56-8.79-4.85-2.43-3.31-3.08-6.77-1.96-10.38,1.12-3.61,3.9-7.04,8.34-10.3,4.51-3.31,8.65-4.93,12.42-4.89,3.77,.05,6.89,1.77,9.37,5.16,1.77,2.41,2.66,4.75,2.7,7.03,.02,2.27-.81,4.62-2.51,7.03l-7.18-5.1c.71-.99,1.13-1.84,1.24-2.55,.12-.71-.06-1.37-.51-2-.71-.97-1.74-1.25-3.09-.85-1.35,.39-3.46,1.65-6.35,3.76-2.88,2.1-4.69,3.73-5.47,4.89-.77,1.15-.81,2.21-.11,3.16,.52,.71,1.2,1.03,2.05,.95,.84-.07,1.86-.54,3.05-1.41l.37-.27-1.69-2.3,5.49-4.02,7.21,9.84Z"/><path class="cls-1" d="M670.34,154.66l19.98-7.92,3.54,8.93-20.81,8.25c-.91,.36-1.52,.8-1.81,1.3-.3,.51-.31,1.11-.03,1.82,.28,.72,.71,1.16,1.28,1.32,.57,.16,1.31,.07,2.21-.29l20.81-8.25,3.56,8.97-19.98,7.92c-4.06,1.61-7.38,1.9-9.97,.87-2.58-1.03-4.64-3.46-6.15-7.28-1.51-3.8-1.67-6.96-.49-9.47,1.18-2.51,3.81-4.57,7.87-6.18Z"/><path class="cls-1" d="M679.31,180.86c-.73,1.57-1.23,2.98-1.52,4.22-.28,1.25-.33,2.3-.13,3.14,.17,.75,.52,1.32,1.06,1.71,.54,.39,1.14,.51,1.79,.36,.78-.17,1.72-1.24,2.85-3.2,.03-.06,.05-.09,.07-.11,1.89-3.38,3.44-5.62,4.64-6.73,1.21-1.11,2.61-1.85,4.23-2.21,2.76-.62,5.25-.16,7.46,1.36,2.21,1.53,3.66,3.8,4.34,6.83,.26,1.18,.38,2.44,.36,3.78-.03,1.34-.21,2.75-.53,4.24l-8.47,1.91c.61-1.32,1.03-2.51,1.25-3.59,.22-1.08,.23-2.03,.05-2.84-.16-.71-.47-1.23-.93-1.58-.46-.35-.98-.46-1.56-.33-.84,.19-1.68,1.23-2.54,3.11-.08,.14-.13,.25-.16,.33-1.55,3.28-2.94,5.5-4.16,6.64-1.22,1.14-2.79,1.93-4.7,2.36-3.19,.72-5.98,.26-8.38-1.38s-3.98-4.17-4.75-7.59c-.29-1.32-.38-2.66-.27-4.03,.11-1.37,.45-2.82,.99-4.36l9.01-2.02Z"/><path class="cls-1" d="M672.96,202.26l33.92,5.11,.78,10.81-32.83,9.93-.68-9.35,4.87-1.09-.42-5.67-4.96-.37-.68-9.37Zm12.46,10.19l.28,3.81,12.23-2.83-12.5-.98Z"/></g><g><path class="cls-1" d="M354.16,293.3c-1.42,.24-2.85,.52-4.29,.83-.62-1.06-1.13-2.04-1.55-2.96-.42-.91-.74-1.71-.97-2.39-.51-1.49-.76-3-.75-4.53,.02-1.53,.35-3.01,1.02-4.46,.66-1.45,1.65-2.67,2.96-3.66,1.31-1,2.85-1.8,4.6-2.4,1.9-.65,3.76-.96,5.58-.93,1.82,.03,3.47,.41,4.96,1.13,1.49,.72,2.76,1.74,3.83,3.06,1.06,1.32,1.87,2.79,2.43,4.43,.55,1.62,.94,3.45,1.18,5.52-1.01,.38-1.72,.66-2.14,.83l-1.8,.74c-.04-1.25-.13-2.26-.26-3.06-.13-.79-.31-1.52-.54-2.2-.37-1.07-.9-2.03-1.61-2.88-.71-.85-1.6-1.52-2.67-1.99-1.07-.47-2.26-.72-3.54-.72-1.29,0-2.56,.2-3.81,.63-1.49,.51-2.74,1.22-3.75,2.12-1.01,.91-1.69,2.04-2.05,3.39-.35,1.35-.25,2.84,.3,4.47,.52,1.5,1.48,3.19,2.88,5.04Z"/><path class="cls-1" d="M374.26,289.01c.52,1.1,.88,1.85,1.07,2.24,.24,.48,.6,1.19,1.1,2.13l-13.47,5.87c-.16,.07-.32,.14-.5,.23-1.46,.73-2.48,1.46-3.03,2.19-.56,.73-.83,1.53-.81,2.4,.01,.87,.25,1.76,.7,2.66,.29,.58,.64,1.08,1.05,1.53,.34,.36,.71,.66,1.11,.89,.34,.19,.69,.33,1.06,.41,.44,.1,.91,.13,1.41,.09,.49-.02,1.01-.11,1.56-.29,.83-.26,2.23-.81,4.19-1.66l5.81-2.52c1.68-.76,3.52-1.61,5.53-2.56,.5,1.07,.89,1.87,1.15,2.39l1.06,2.04-8.06,3.47-6.37,2.82c-1.5,.64-2.65,1.05-3.45,1.23-.67,.14-1.33,.21-1.98,.18-.59-.03-1.15-.14-1.69-.34-.7-.24-1.38-.59-2.03-1.06-.73-.52-1.38-1.13-1.95-1.84-.78-.98-1.47-2.04-2.04-3.2-.59-1.19-1.02-2.37-1.29-3.53-.22-.99-.29-1.97-.21-2.94,.09-.97,.3-1.81,.65-2.52,.28-.58,.71-1.14,1.29-1.69,.64-.61,1.43-1.15,2.36-1.62,.32-.16,.75-.36,1.27-.6,.52-.24,1.21-.54,2.04-.89l2.36-1.01c.74-.31,1.82-.78,3.24-1.42l3.61-1.62c.98-.44,2.07-.94,3.25-1.5Z"/><path class="cls-1" d="M363.7,321.25c1.5-1.08,2.69-2,3.59-2.75,.23,2.32,.81,4.19,1.74,5.59,.37,.56,.82,1.03,1.33,1.38,.52,.36,1.03,.54,1.55,.54,.51,0,.99-.15,1.44-.44,.34-.22,.61-.48,.81-.78,.26-.41,.48-.95,.62-1.61,.23-.87,.56-2.37,.98-4.5,.21-1.02,.38-1.74,.48-2.14,.23-.91,.48-1.66,.76-2.24,.28-.58,.6-1.08,.98-1.51,.38-.42,.82-.81,1.34-1.14,.95-.63,2-.98,3.14-1.07,1.14-.09,2.25,.18,3.32,.78,1.08,.62,2.07,1.62,2.99,3.02,.83,1.26,1.58,2.8,2.26,4.6-1.02,.74-2.17,1.62-3.44,2.64-.29-1.77-.82-3.24-1.58-4.4-.56-.87-1.26-1.42-2.07-1.67-.81-.26-1.51-.19-2.11,.21-.16,.11-.32,.24-.47,.39-.16,.16-.29,.33-.41,.51-.11,.18-.25,.46-.38,.84-.14,.37-.26,.87-.38,1.47-.11,.62-.19,1.13-.24,1.55l-.63,2.75c-.12,.67-.27,1.3-.43,1.87-.16,.57-.34,1.09-.53,1.54-.19,.46-.4,.86-.62,1.2-.23,.34-.49,.65-.77,.93-.29,.28-.61,.54-.98,.78-.85,.56-1.77,.91-2.75,1.07-.98,.15-1.93,.06-2.83-.26-.91-.32-1.71-.81-2.4-1.46-.69-.64-1.32-1.39-1.88-2.24-.37-.56-.74-1.26-1.12-2.08-.38-.82-.82-1.95-1.31-3.38Z"/><path class="cls-1" d="M376.37,340.31l4.34-3.08,6.36-4.72,6.18-4.74-.7-.86-.66-.78-.63-.75-2.39-2.75c1.41-1.04,2.46-1.83,3.18-2.4,1.9,2.37,3.89,4.84,5.98,7.42l3.59,4.39,1.92,2.34c-1.4,1-2.47,1.8-3.19,2.39-1.12-1.55-2.23-3-3.33-4.36l-.76-.94-2.7,1.95-10.2,7.71-1.68,1.33c-.69,.55-1.41,1.12-2.15,1.73l-1.49-1.89c-.17-.2-.72-.86-1.66-1.98Z"/><path class="cls-1" d="M412.5,342.42c1.14,1.08,2.06,2.29,2.77,3.64,.71,1.35,1.08,2.82,1.13,4.4,.04,1.58-.25,3.11-.86,4.58-.61,1.47-1.6,2.93-2.96,4.38-1.28,1.35-2.7,2.47-4.26,3.33-1.56,.87-3.17,1.36-4.84,1.48-1.66,.12-3.29-.16-4.87-.84-1.58-.68-3.02-1.63-4.31-2.86-1.23-1.16-2.22-2.47-2.97-3.93-.76-1.46-1.14-3-1.16-4.62-.02-1.61,.32-3.14,1-4.57,.69-1.42,1.63-2.78,2.84-4.06,1.33-1.4,2.81-2.53,4.46-3.39,1.65-.86,3.29-1.31,4.94-1.34,1.65-.03,3.24,.28,4.8,.93,1.55,.65,2.99,1.6,4.31,2.85Zm-2.84,2.64c-1.16-1.09-2.46-1.74-3.89-1.94-1.44-.2-2.87,.03-4.31,.68-1.44,.66-2.73,1.59-3.9,2.83-1.08,1.15-1.87,2.4-2.37,3.76-.49,1.36-.55,2.7-.16,4.03,.39,1.32,1.09,2.46,2.09,3.41,.76,.72,1.62,1.25,2.59,1.6,.97,.35,2,.46,3.08,.32,1.08-.13,2.15-.52,3.22-1.14,1.07-.62,2.04-1.4,2.93-2.34,.82-.87,1.5-1.82,2.03-2.83,.53-1.01,.83-2.04,.9-3.06,.07-1.03-.1-2-.51-2.91-.41-.91-.98-1.71-1.71-2.41Z"/><path class="cls-1" d="M407.15,371.67l2.65-3.17,8.98-11.35,3.83-4.98c1.23,.87,2.13,1.5,2.71,1.89,.46,.31,1.31,.87,2.54,1.68-.41,.91-.7,1.56-.86,1.94-.17,.39-.4,1.03-.71,1.92-.31,.89-.67,1.97-1.09,3.26-.64,1.93-1.31,3.82-2.02,5.66l-1.93,4.98,5.5-4.33,7.42-5.44c.25-.18,.53-.4,.83-.66,.3-.25,.84-.71,1.61-1.37,1.02,.72,1.95,1.36,2.75,1.91,.54,.37,1.41,.95,2.61,1.73-2.08,2.8-4.34,5.93-6.78,9.38-2.43,3.46-4.24,6.04-5.41,7.77-.56,.83-1.26,1.88-2.1,3.15-.85-.61-1.43-1.02-1.75-1.23-.45-.31-1.06-.71-1.83-1.2,.75-.99,1.36-1.81,1.82-2.46l6.3-8.8c.88-1.25,1.74-2.48,2.57-3.7l.82-1.23-14.75,11.37-1.77,1.41c-.84-.6-1.41-1.01-1.73-1.22-.4-.27-1.02-.67-1.87-1.23l4.05-10.79c.14-.39,.43-1.2,.86-2.45l1.27-3.62c.12-.35,.22-.62,.31-.84,.09-.21,.28-.68,.59-1.41l-1.47,1.81c-.46,.58-1.22,1.56-2.28,2.93l-6.84,8.98c-.33,.45-.81,1.12-1.43,2.02l-1.67-1.17c-.29-.2-.86-.57-1.73-1.13Z"/><path class="cls-1" d="M440.58,392.28l1.99-3.84,4.18-8.59,2.94-6.27c.26-.57,.53-1.15,.78-1.74,.19-.43,.47-1.08,.84-1.96,1.22,.56,2.23,1.01,3,1.35,.62,.27,1.49,.63,2.6,1.08,1.12,.45,2,.81,2.65,1.09,1.33,.58,2.26,1.12,2.79,1.62,.56,.54,.97,1.17,1.25,1.91,.27,.75,.39,1.54,.32,2.39-.06,.95-.31,1.89-.72,2.84-.62,1.43-1.51,2.6-2.64,3.5-1.13,.9-2.38,1.4-3.73,1.5-1.35,.1-2.7-.15-4.04-.74-.66-.29-1.33-.67-2-1.15,.29-1.25,.52-2.44,.69-3.56,.53,.41,1.09,.73,1.69,.99,.8,.35,1.55,.52,2.26,.49,.71-.02,1.37-.27,2-.75,.62-.47,1.1-1.11,1.45-1.9,.21-.47,.32-.92,.34-1.38,.02-.45-.04-.85-.22-1.21-.17-.35-.4-.64-.7-.87-.3-.23-.75-.47-1.37-.74-.54-.24-1.09-.46-1.65-.68-.56-.22-1.05-.41-1.47-.6-1.07,2.13-2.06,4.18-2.99,6.13l-2.95,6.29c-1.05,2.23-1.79,3.88-2.25,4.93-.18,.4-.43,.98-.75,1.74l-2.09-.95c-.27-.12-1-.42-2.19-.91Z"/><path class="cls-1" d="M478.19,379.5c1.51,.43,2.89,1.08,4.15,1.95,1.25,.88,2.26,2,3.03,3.38,.77,1.38,1.22,2.87,1.36,4.46,.14,1.59-.06,3.34-.6,5.26-.51,1.79-1.26,3.44-2.24,4.93-.99,1.49-2.19,2.67-3.61,3.54-1.42,.88-2.99,1.38-4.71,1.51-1.72,.13-3.43-.04-5.15-.53-1.62-.46-3.1-1.17-4.45-2.12-1.35-.95-2.4-2.13-3.16-3.56-.76-1.43-1.17-2.94-1.22-4.52-.05-1.59,.16-3.22,.64-4.91,.53-1.86,1.32-3.54,2.39-5.07,1.06-1.53,2.31-2.68,3.76-3.46,1.44-.79,3-1.25,4.68-1.39,1.68-.14,3.39,.04,5.13,.54Zm-1.3,3.65c-1.53-.43-2.98-.41-4.34,.08-1.37,.49-2.54,1.35-3.51,2.59-.97,1.24-1.69,2.68-2.16,4.31-.43,1.52-.55,2.99-.36,4.43,.19,1.43,.76,2.65,1.72,3.64,.95,1,2.09,1.68,3.42,2.06,1.01,.28,2.02,.36,3.05,.22,1.02-.14,1.98-.52,2.88-1.14,.9-.62,1.67-1.46,2.33-2.5,.66-1.04,1.16-2.19,1.51-3.42,.33-1.16,.49-2.31,.5-3.45,0-1.15-.2-2.19-.61-3.13-.41-.94-1.01-1.72-1.79-2.34-.78-.62-1.66-1.07-2.63-1.35Z"/><path class="cls-1" d="M493.78,408.81c-1.74-8.56-3.59-17.05-5.55-25.5,1.01,.13,1.82,.22,2.45,.28,.69,.07,1.51,.14,2.46,.21l2.91,15.41,1.25,6.07c.49-.85,1.23-2.22,2.23-4.11,1-1.89,1.71-3.29,2.16-4.19-.31-1.74-.72-3.84-1.22-6.31-.5-2.47-.95-4.56-1.34-6.26,.89,.11,1.67,.2,2.34,.27,.75,.07,1.53,.14,2.35,.19,.28,2.23,.61,4.45,1,6.64,1.1-2.09,2.11-4.17,3.06-6.23,.91,.12,1.65,.2,2.2,.25,.64,.07,1.38,.13,2.21,.18-.83,1.48-1.85,3.36-3.08,5.66-1.23,2.3-2.23,4.22-3,5.77,.14,.89,.43,2.41,.85,4.55,.43,2.14,.75,3.65,.95,4.54l5.25-9.93,3.84-7.44,1.26-2.54c1,.13,1.82,.22,2.42,.28,.67,.07,1.49,.14,2.45,.21l-3.63,6.45-7.63,13.97-1.72,3.23c-1.12-.14-2.08-.25-2.88-.33-.84-.08-1.81-.17-2.9-.25-.38-2.5-.82-4.95-1.33-7.38-1.23,2.25-2.41,4.55-3.54,6.89-1.12-.13-2.09-.25-2.91-.33-.86-.09-1.83-.17-2.92-.25Z"/><path class="cls-1" d="M526.73,410.81l-.12-6.34-.36-7.91-.47-7.86c-.02-.34-.09-1.24-.22-2.7,1.17-.08,2.27-.16,3.3-.25,.77-.06,1.77-.17,3.03-.31,1.25-.14,2.33-.25,3.24-.33,1.24-.11,2.4-.12,3.47-.04,1.07,.08,2.02,.32,2.85,.71,.83,.4,1.56,.92,2.2,1.57,.64,.65,1.18,1.39,1.62,2.2,.44,.82,.8,1.74,1.08,2.77,.29,1.03,.48,2.09,.57,3.17,.18,2.08,.03,4.08-.43,6.01-.46,1.93-1.26,3.57-2.4,4.9-1.13,1.33-2.44,2.24-3.91,2.72-1.48,.48-3.17,.8-5.08,.96l-5.36,.42c-.34,.03-1.34,.12-3.01,.3Zm4.51-4.27c.86-.02,1.72-.07,2.56-.15,.96-.08,1.84-.21,2.64-.39,.81-.18,1.49-.41,2.06-.7,.57-.29,1.12-.75,1.67-1.39,.54-.64,.97-1.37,1.28-2.18,.31-.81,.53-1.71,.64-2.68,.12-.97,.14-1.95,.05-2.94-.15-1.81-.55-3.27-1.19-4.39-.63-1.12-1.41-1.9-2.33-2.34-.92-.44-2.29-.58-4.12-.42-1.19,.1-2.54,.24-4.07,.42l.81,17.16Z"/><path class="cls-1" d="M552.44,408.13l-1.03-6.91-1.38-7.94-1.35-7.2-.52-2.42c2.55-.53,5.21-1.09,7.97-1.69l2.96-.66,4.46-.98,.65,3.88-1.49,.23c-.41,.06-.97,.17-1.68,.31-.71,.14-1.44,.29-2.18,.46-1.6,.35-2.64,.58-3.11,.68-.47,.11-1.17,.28-2.11,.52l1.11,6.36c1.42-.27,2.85-.56,4.27-.87,.99-.22,2.66-.62,4.99-1.2,.15,1.1,.36,2.4,.62,3.92-2.76,.56-4.33,.89-4.74,.97-1.22,.26-2.72,.63-4.52,1.09l1.19,6.7,1.7-.35c.49-.11,1.63-.37,3.39-.77l3.34-.8,2.21-.61c.19,1.4,.4,2.71,.62,3.94-2.68,.56-5.1,1.07-7.25,1.54l-5.08,1.12-3.05,.68Z"/><path class="cls-1" d="M573.01,403.39c-.88-3.52-2-7.52-3.37-12.01-1.37-4.49-2.64-8.41-3.79-11.77,1.2-.38,2.21-.72,3.02-1,.87-.3,1.71-.6,2.53-.92,.82-.32,1.69-.64,2.62-.96,1.15-.4,2.21-.68,3.18-.84,.96-.16,1.89-.1,2.78,.2,.9,.3,1.64,.77,2.26,1.42,.6,.65,1.08,1.49,1.43,2.51,.22,.64,.36,1.27,.43,1.89,.07,.62,.07,1.23-.01,1.83-.08,.6-.23,1.15-.44,1.65-.22,.5-.46,.93-.73,1.27-.27,.34-.59,.67-.98,.98-.38,.31-.9,.71-1.57,1.19l1.8,1.92c.58,.61,1.65,1.69,3.21,3.25l2.55,2.52c.14,.13,.55,.57,1.26,1.32-1.23,.4-2.04,.66-2.43,.8-.48,.17-1.32,.46-2.52,.9l-3.23-4c-.53-.6-1.16-1.31-1.9-2.12l-3.24-3.56c-.31-.33-.77-.83-1.35-1.5,.71-.09,1.35-.23,1.9-.42,.85-.29,1.58-.72,2.18-1.29,.6-.56,.97-1.25,1.12-2.05,.15-.8,.09-1.6-.19-2.39-.16-.48-.4-.9-.7-1.26-.31-.35-.7-.61-1.19-.76-.49-.16-1.01-.18-1.58-.08-.57,.11-1.12,.25-1.66,.44-.3,.1-.71,.25-1.22,.44-.52,.18-1.15,.41-1.91,.67l2.16,7.16,4.14,12.99-2.33,.76c-.37,.13-1.12,.4-2.25,.81Z"/><path class="cls-1" d="M614.74,380.02c.47,1.35,.99,2.71,1.54,4.09-.94,.79-1.83,1.46-2.66,2.03-.83,.56-1.57,1.02-2.2,1.36-1.38,.76-2.83,1.26-4.34,1.49-1.51,.24-3.03,.16-4.57-.25-1.54-.41-2.91-1.18-4.11-2.31-1.2-1.12-2.24-2.5-3.13-4.13-.96-1.77-1.58-3.55-1.85-5.35-.27-1.8-.18-3.49,.29-5.08,.46-1.59,1.25-3.02,2.38-4.28,1.12-1.27,2.44-2.32,3.96-3.14,1.5-.81,3.24-1.51,5.24-2.08,.54,.93,.94,1.59,1.17,1.96l1.03,1.66c-1.22,.25-2.21,.5-2.97,.76-.76,.26-1.45,.57-2.08,.91-.99,.54-1.85,1.23-2.57,2.07-.72,.84-1.23,1.83-1.52,2.97-.29,1.14-.32,2.34-.12,3.61,.21,1.27,.63,2.49,1.26,3.65,.75,1.39,1.66,2.5,2.71,3.35,1.06,.85,2.29,1.33,3.68,1.45,1.4,.12,2.84-.22,4.35-1.04,1.39-.76,2.9-2,4.49-3.69Z"/><path class="cls-1" d="M616.02,353.9c1.26-.94,2.62-1.63,4.08-2.09,1.45-.46,2.96-.57,4.53-.33,1.56,.24,3.02,.78,4.37,1.64,1.34,.86,2.61,2.09,3.79,3.69,1.11,1.5,1.96,3.09,2.54,4.78,.58,1.69,.78,3.36,.61,5.02-.17,1.66-.73,3.21-1.68,4.65-.94,1.44-2.13,2.69-3.57,3.75-1.36,1-2.82,1.75-4.39,2.23-1.57,.48-3.16,.6-4.76,.33-1.59-.27-3.03-.87-4.32-1.79-1.29-.92-2.46-2.09-3.5-3.51-1.15-1.55-2-3.21-2.56-4.98-.56-1.77-.71-3.47-.45-5.1,.26-1.62,.84-3.14,1.76-4.56,.91-1.41,2.1-2.66,3.55-3.74Zm2.1,3.27c-1.28,.94-2.14,2.11-2.59,3.49-.45,1.38-.47,2.83-.08,4.36,.39,1.53,1.09,2.97,2.1,4.34,.94,1.27,2.04,2.26,3.28,2.99,1.25,.73,2.56,1.01,3.94,.86,1.37-.15,2.61-.63,3.72-1.46,.84-.62,1.52-1.38,2.04-2.27,.52-.9,.8-1.89,.85-2.98,.06-1.09-.13-2.21-.56-3.37-.43-1.16-1.02-2.26-1.79-3.29-.71-.96-1.52-1.79-2.43-2.5-.9-.7-1.86-1.18-2.85-1.43-1-.25-1.98-.25-2.95-.01-.97,.24-1.86,.66-2.67,1.27Z"/><path class="cls-1" d="M640.61,367.18c-.78-2.36-1.79-5.23-3.04-8.61l-3.46-9.46c-1.06-2.94-2.01-5.44-2.85-7.52,.99-.94,1.69-1.61,2.1-2.01,.71-.7,1.41-1.4,2.07-2.08l6.82,3.73,14.27,7.54,1.89,.95-1.72,1.63c-.39,.38-1.03,1.04-1.94,1.96-.93-.59-2.24-1.35-3.91-2.28-1.67-.92-3.04-1.66-4.11-2.21l-5.94,5.83c1.14,2.92,2.34,5.86,3.6,8.82l-1.87,1.78c-.35,.34-.99,.99-1.93,1.94Zm-1.46-16.22l4.32-4.24-7.67-4.27,1.23,3.08,2.12,5.43Z"/><path class="cls-1" d="M663.57,343.17l-3.94-3.58-5.98-5.19-5.95-5.01-.69,.86-.62,.82-.59,.78-2.17,2.93c-1.32-1.15-2.32-2.01-3.03-2.59,1.9-2.36,3.89-4.84,5.96-7.44l3.51-4.45,1.87-2.39c1.28,1.15,2.29,2.02,3.02,2.6-1.27,1.42-2.45,2.82-3.54,4.19l-.76,.95,2.49,2.21,9.72,8.3,1.66,1.36c.69,.56,1.4,1.13,2.15,1.73l-1.53,1.86c-.16,.2-.69,.89-1.57,2.04Z"/><path class="cls-1" d="M672.6,331.19c-3.33-2.53-6.77-5.08-10.32-7.64-3.55-2.57-6.29-4.5-8.21-5.79l-1.62-1.07,1.5-2.18c.08-.12,.52-.8,1.31-2.03,5.06,3.91,11.78,8.74,20.17,14.49l-1.32,1.91c-.22,.33-.72,1.09-1.5,2.31Z"/><path class="cls-1" d="M678.65,322.43c-1.82-1.2-3.9-2.48-6.24-3.84l-7.7-4.5c-2.79-1.62-5.29-3.02-7.5-4.2,.59-1.07,1.09-1.98,1.49-2.74,.29-.55,.72-1.37,1.27-2.46,2.66,.07,6.19,.08,10.57,.03,4.38-.05,7.98-.05,10.81,0l-14.62-8.43c-.35-.2-.94-.52-1.78-.96,.49-.86,.85-1.52,1.09-1.96,.09-.18,.43-.84,1.01-1.98l5.7,3.48,9.85,5.79,5.85,3.33c-.54,.95-.98,1.77-1.35,2.46-.29,.53-.74,1.42-1.36,2.64-1.2-.04-2.1-.07-2.69-.07-.91,0-2.8,.05-5.66,.12-1.89,.05-4.3,.08-7.22,.1-2.15,.02-4.02,.02-5.6,0,1.69,1,4.85,2.82,9.46,5.48,1.88,1.08,4.12,2.34,6.71,3.76-.49,.86-.84,1.49-1.04,1.88-.16,.31-.51,1-1.06,2.08Z"/><path class="cls-1" d="M681.85,281.8c.51-1.36,.99-2.67,1.43-3.92,.59-1.64,1.06-3.01,1.43-4.11,3.73,1.63,7.91,3.33,12.54,5.11-.21,1.78-.48,3.36-.8,4.75-.32,1.38-.64,2.54-.98,3.47-.62,1.75-1.41,3.29-2.37,4.64-.96,1.34-2.09,2.36-3.41,3.05-1.32,.69-2.84,1.03-4.58,1.02-1.74-.01-3.47-.32-5.19-.94-1.47-.52-2.82-1.23-4.05-2.12-1.23-.89-2.27-1.94-3.13-3.13-.86-1.2-1.47-2.49-1.83-3.88-.36-1.39-.46-2.76-.29-4.11,.17-1.36,.5-2.74,1-4.13,.69-1.93,1.77-4.03,3.26-6.32,1.3,.45,2.68,.88,4.13,1.29-1.74,2.02-2.95,3.98-3.62,5.87-.43,1.22-.65,2.45-.63,3.68,0,1.23,.29,2.39,.85,3.48,.56,1.09,1.38,2.06,2.48,2.91,1.09,.85,2.3,1.52,3.62,1.99,1.47,.53,2.87,.76,4.2,.7,1.33-.06,2.51-.53,3.55-1.41,1.04-.88,1.81-2.05,2.32-3.48,.19-.53,.36-1.17,.5-1.92,.15-.75,.23-1.57,.24-2.43l-5.92-2.39-.44,1.17c-.23,.66-.52,1.52-.85,2.56-1.5-.64-2.65-1.1-3.46-1.39Z"/></g><path class="cls-1" d="M520.8,293.9c18.08,0,32.73,14.01,32.73,31.29h63.77c.72-10.11,1.1-20.47,1.1-31.01,0-113.64-43.56-205.77-97.29-205.77s-97.29,92.13-97.29,205.77c0,10.54,.38,20.9,1.1,31.01h63.14c0-17.29,14.65-31.29,32.73-31.29Zm-1.15-106.21c18.08,0,32.73,14.01,32.73,31.3s-14.66,31.3-32.73,31.3-32.73-14.01-32.73-31.3,14.66-31.3,32.73-31.3Z"/><path class="cls-1" d="M359.5,248.26c0,4.56-3.7,8.26-8.25,8.26s-8.25-3.7-8.25-8.26,3.69-8.25,8.25-8.25,8.25,3.7,8.25,8.25Z"/><path class="cls-1" d="M700.13,248.26c0,4.56-3.69,8.26-8.25,8.26s-8.25-3.7-8.25-8.26,3.69-8.25,8.25-8.25,8.25,3.7,8.25,8.25Z"/><g><path class="cls-1" d="M455.6,335.81c-.87-.88-1.75-1.51-2.64-1.92-.89-.41-1.85-.62-2.87-.62-1.26,0-2.29,.28-3.08,.85-.78,.57-1.18,1.3-1.18,2.2,0,.8,.33,1.53,1,2.22,.65,.68,1.85,1.51,3.57,2.5,2.25,1.28,3.85,2.5,4.79,3.64,.93,1.15,1.4,2.44,1.4,3.91,0,2.16-.64,3.87-1.92,5.16-1.28,1.29-2.99,1.93-5.13,1.93-1.34,0-2.57-.19-3.67-.59-1.11-.4-2.24-1.03-3.38-1.9v-4.42c1.09,1.23,2.18,2.14,3.3,2.73,1.11,.59,2.27,.89,3.47,.89s2.14-.31,2.88-.91c.74-.61,1.11-1.41,1.11-2.39,0-.9-.33-1.7-1-2.43-.65-.71-1.85-1.57-3.57-2.55-2.25-1.29-3.85-2.48-4.79-3.59-.92-1.09-1.39-2.32-1.39-3.69,0-2.07,.69-3.72,2.07-4.97,1.38-1.25,3.23-1.86,5.54-1.86,.98,0,1.91,.13,2.75,.4,.85,.26,1.77,.71,2.77,1.35v4.07Z"/><path class="cls-1" d="M461.81,331.83c.55,0,1.01,.19,1.39,.57,.38,.38,.57,.84,.57,1.39s-.2,1.01-.57,1.39c-.38,.38-.84,.58-1.39,.58s-1.01-.2-1.39-.58c-.38-.38-.57-.84-.57-1.39s.19-1.01,.57-1.39c.38-.38,.85-.57,1.39-.57Zm-1.62,7.04h3.25v16.42h-3.25v-16.42Z"/><path class="cls-1" d="M468,338.87h3.25v2.34c1.56-1.82,3.14-2.73,4.75-2.71,1.9,0,3.35,.57,4.34,1.73,.98,1.16,1.48,2.85,1.48,5.07v10h-3.25v-10.23c0-1.25-.27-2.21-.82-2.86-.55-.66-1.35-1-2.39-1-1.35,0-2.62,.7-3.79,2.1l-.31,.39v11.59h-3.25v-16.42Z"/><path class="cls-1" d="M498.78,354.48c-.87,.45-1.65,.75-2.33,.93-.69,.17-1.46,.26-2.3,.26-2.52,0-4.58-.79-6.18-2.4-1.61-1.6-2.41-3.66-2.41-6.17s.72-4.59,2.16-6.19c1.44-1.6,3.3-2.41,5.57-2.41,.84,0,1.62,.08,2.34,.27,.71,.18,1.54,.49,2.5,.93v3.48c-.75-.61-1.47-1.05-2.15-1.31-.69-.27-1.41-.4-2.19-.4-1.44,0-2.62,.52-3.52,1.57-.91,1.05-1.37,2.4-1.37,4.07s.5,3,1.51,4.04c1.02,1.04,2.32,1.56,3.93,1.56,.81,0,1.56-.13,2.26-.4,.71-.27,1.42-.71,2.18-1.31v3.48Z"/><path class="cls-1" d="M510.13,355.67c-2.51,0-4.57-.79-6.17-2.4-1.6-1.6-2.41-3.66-2.41-6.17s.69-4.59,2.07-6.19c1.38-1.6,3.15-2.41,5.32-2.41,2.37,0,4.2,.75,5.48,2.24,1.29,1.5,1.93,3.62,1.93,6.37v.59h-11.41c.13,1.33,.62,2.43,1.46,3.32,1,1.04,2.29,1.55,3.87,1.55,1.13,0,2.18-.2,3.15-.59,.97-.4,1.95-1.03,2.93-1.9v3.42c-1.02,.78-2.02,1.33-3,1.67-.98,.34-2.05,.5-3.23,.5Zm3.12-10.13c-.15-1.15-.46-2.06-.97-2.73-.71-.98-1.76-1.46-3.15-1.46-1.25,0-2.26,.52-3.05,1.57-.54,.7-.89,1.58-1.07,2.63h8.23Z"/><path class="cls-1" d="M535.12,329.99h3.57v25.31h-3.57v-25.31Z"/><path class="cls-1" d="M552.93,355.67l-2.16-2.62c2.76-1.81,4.87-3.96,6.3-6.46,.55-.96,1.01-1.97,1.37-3.01-1.2,.75-2.57,1.12-4.1,1.12-2.09,0-3.79-.67-5.07-2.02-1.28-1.35-1.93-3.13-1.93-5.35,0-2.01,.73-3.73,2.2-5.18,1.47-1.44,3.22-2.16,5.26-2.16,2.36,0,4.3,.85,5.81,2.55,1.5,1.7,2.26,3.89,2.26,6.55,0,3.15-.88,6.19-2.64,9.12-1.76,2.93-4.19,5.41-7.3,7.46Zm2.01-22.28c-1.2,0-2.18,.36-2.94,1.09-.75,.72-1.14,1.67-1.14,2.83s.4,2.12,1.19,2.86c.79,.73,1.8,1.11,3.05,1.11,1.57,.01,2.91-.46,4.04-1.41,.04-.49,.06-1.01,.06-1.54,0-1.42-.41-2.6-1.21-3.54-.82-.93-1.83-1.41-3.06-1.41Z"/><path class="cls-1" d="M567.69,354.05l9.47-20.3h-11.09v-3.38h16.14l-11.26,25.21-3.26-1.53Z"/><path class="cls-1" d="M585.87,352.15c-1.47-2.35-2.21-5.46-2.21-9.31s.74-6.97,2.21-9.32c1.48-2.35,3.42-3.53,5.84-3.53s4.36,1.18,5.84,3.53c1.47,2.36,2.21,5.46,2.21,9.32s-.74,6.96-2.21,9.31c-1.48,2.35-3.43,3.52-5.84,3.52s-4.36-1.17-5.84-3.52Zm9.11-2.51c.83-1.75,1.25-4.02,1.25-6.8s-.42-5.07-1.25-6.82c-.84-1.75-1.93-2.63-3.27-2.63s-2.42,.88-3.26,2.63c-.84,1.75-1.26,4.01-1.26,6.82s.42,5.05,1.26,6.8c.84,1.75,1.92,2.62,3.26,2.62s2.43-.88,3.27-2.62Z"/></g></g></g><g id="Layer_3"><rect class="cls-1" x="13.78" y="426.66" width="717.51" height="54"/><g><path class="cls-3" d="M38.69,456.55v16.36h-10.44v-16.36l-9.63-22.33h10.9c1.28,3.94,2.67,7.89,3.65,11.95,1.1-4,2.32-8,3.65-11.95h10.79l-8.93,22.33Z"/><path class="cls-3" d="M50.35,472.9v-38.69h19.37v9.11h-8.93v5.63h8v8.76h-8v5.92h8.93v9.28h-19.37Z"/><path class="cls-3" d="M91.24,472.9l-.81-4.93h-7.02l-.87,4.93h-10.79l9.34-38.69h12.76l8.18,38.69h-10.79Zm-2.03-13.17c-.81-5.39-1.51-10.79-1.97-16.24-.23,1.8-.41,3.65-.64,5.45-.52,3.6-1.1,7.19-1.8,10.79h4.41Z"/><path class="cls-3" d="M121.23,472.9c-1.97-5.34-4-10.67-5.92-16.07,.12,1.68,.17,3.42,.17,5.1v10.96h-10.44v-38.69h10.67c2.67,0,5.57,.29,8.06,1.33,4.64,1.97,6.96,6.73,6.96,11.6,0,4.52-1.8,7.77-5.97,9.69l7.77,16.07h-11.31Zm-5.05-20.76c2.67,0,4.18-2.44,4.18-4.87,0-3.13-1.91-4.35-4.87-4.35v9.22h.7Z"/><path class="cls-3" d="M154.23,447.32c-1.33-2.03-3.54-4.23-6.15-4.23-1.33,0-2.73,.87-2.73,2.32,0,3.94,9.98,4.99,9.98,15.08,0,7.19-4.87,13.11-12.3,13.11-2.73,0-5.39-.64-7.89-1.68v-12.12c1.57,2.15,3.83,4.23,6.61,4.23,1.51,0,3.07-.87,3.07-2.55,0-4.12-9.86-5.45-9.86-15.25,0-6.73,4.81-12.7,11.77-12.7,2.61,0,5.16,.75,7.48,1.97v11.83Z"/><path class="cls-3" d="M186.82,473.6c-4.12,0-7.95-2.03-10.56-5.16-3.36-4.06-4.35-10.15-4.35-15.25,0-9.11,4.23-19.66,14.85-19.66s14.56,10.67,14.56,19.66-3.65,20.42-14.5,20.42Zm-.12-30.33c-3.6,0-3.94,7.77-3.94,10.27s.23,10.27,3.83,10.27,3.89-7.71,3.89-10.21-.17-10.32-3.77-10.32Z"/><path class="cls-3" d="M216.23,443.32v5.63h7.42v8.76h-7.42v15.2h-10.44v-38.69h18.44v9.11h-8Z"/><path class="cls-3" d="M252.24,443.32v5.63h7.42v8.76h-7.42v15.2h-10.44v-38.69h18.44v9.11h-8Z"/><path class="cls-3" d="M264.31,472.9v-38.69h10.44v38.69h-10.44Z"/><path class="cls-3" d="M297.37,472.9c-2.73-7.37-5.74-14.67-7.89-22.27,.29,4.12,.64,8.29,.64,12.41v9.86h-9.98v-38.69h9.98l5.22,13.57c1.22,3.19,2.2,6.5,3.19,9.74-.58-4.76-1.16-9.45-1.16-14.27v-9.05h9.98v38.69h-9.98Z"/><path class="cls-3" d="M312.79,472.9v-38.69h10.44v38.69h-10.44Z"/><path class="cls-3" d="M346.9,447.32c-1.33-2.03-3.54-4.23-6.15-4.23-1.33,0-2.73,.87-2.73,2.32,0,3.94,9.98,4.99,9.98,15.08,0,7.19-4.87,13.11-12.3,13.11-2.73,0-5.39-.64-7.89-1.68v-12.12c1.57,2.15,3.83,4.23,6.61,4.23,1.51,0,3.07-.87,3.07-2.55,0-4.12-9.86-5.45-9.86-15.25,0-6.73,4.81-12.7,11.77-12.7,2.61,0,5.16,.75,7.48,1.97v11.83Z"/><path class="cls-3" d="M367.49,472.9v-15.54h-4.99v15.54h-10.44v-38.69h10.44v13.69h4.99v-13.69h10.44v38.69h-10.44Z"/><path class="cls-3" d="M383.32,472.9v-38.69h10.44v38.69h-10.44Z"/><path class="cls-3" d="M416.38,472.9c-2.73-7.37-5.74-14.67-7.89-22.27,.29,4.12,.64,8.29,.64,12.41v9.86h-9.98v-38.69h9.98l5.22,13.57c1.22,3.19,2.2,6.5,3.19,9.74-.58-4.76-1.16-9.45-1.16-14.27v-9.05h9.98v38.69h-9.98Z"/><path class="cls-3" d="M459.82,452.14c0,4.81-.29,10.44-2.55,14.79-2.32,4.41-6.67,6.67-11.54,6.67-11.19,0-14.91-10.27-14.91-19.84s3.65-20.24,14.91-20.24c6.5,0,10.79,3.83,13.28,9.57l-10.15,3.71c-.17-1.68-1.04-3.94-3.07-3.94-4.29,0-4.29,8.87-4.29,11.83,0,2.73-.06,9.57,3.94,9.57,2.9,0,3.65-3.25,3.65-5.57h-3.83v-8.12h14.56v1.57Z"/><path class="cls-3" d="M477.8,472.9v-38.69h19.37v9.11h-8.93v5.63h8v8.76h-8v5.92h8.93v9.28h-19.37Z"/><path class="cls-3" d="M517.3,472.9c-.87-2.38-1.62-4.81-2.44-7.19-.35-1.04-.75-2.09-.99-3.19-.35,1.16-.7,2.26-1.04,3.42-.75,2.38-1.68,4.64-2.55,6.96h-11.37l9.4-20.07-8.87-18.62h11.6c.99,3.07,2.03,6.09,2.96,9.16,.64-3.07,1.62-6.15,2.49-9.16h11.72l-8.82,18.62,9.51,20.07h-11.6Z"/><path class="cls-3" d="M551.69,472.2c-2.26,.99-3.71,1.39-6.21,1.39-11.14,0-15.89-10.03-15.89-19.89,0-10.61,5.45-20.18,17.11-20.18,2.09,0,3.25,.17,5.16,.99v11.02c-1.39-1.45-2.73-2.32-4.81-2.32-5.51,0-6.79,5.92-6.79,10.32s1.28,9.98,6.61,9.98c2.26,0,3.83-1.04,5.45-2.49l-.64,11.19Z"/><path class="cls-3" d="M556.39,472.9v-38.69h19.37v9.11h-8.93v5.63h8v8.76h-8v5.92h8.93v9.28h-19.37Z"/><path class="cls-3" d="M580.23,472.9v-38.69h10.44v29.41h7.83v9.28h-18.27Z"/><path class="cls-3" d="M601.63,472.9v-38.69h10.44v29.41h7.83v9.28h-18.27Z"/><path class="cls-3" d="M623.03,472.9v-38.69h19.37v9.11h-8.93v5.63h8v8.76h-8v5.92h8.93v9.28h-19.37Z"/><path class="cls-3" d="M664.09,472.9c-2.73-7.37-5.74-14.67-7.89-22.27,.29,4.12,.64,8.29,.64,12.41v9.86h-9.98v-38.69h9.98l5.22,13.57c1.22,3.19,2.2,6.5,3.19,9.74-.58-4.76-1.16-9.45-1.16-14.27v-9.05h9.98v38.69h-9.98Z"/><path class="cls-3" d="M700.63,472.2c-2.26,.99-3.71,1.39-6.21,1.39-11.14,0-15.89-10.03-15.89-19.89,0-10.61,5.45-20.18,17.11-20.18,2.09,0,3.25,.17,5.16,.99v11.02c-1.39-1.45-2.73-2.32-4.81-2.32-5.51,0-6.79,5.92-6.79,10.32s1.28,9.98,6.61,9.98c2.26,0,3.83-1.04,5.45-2.49l-.64,11.19Z"/><path class="cls-3" d="M705.33,472.9v-38.69h19.37v9.11h-8.93v5.63h8v8.76h-8v5.92h8.93v9.28h-19.37Z"/></g></g></svg>