<?xml version="1.0" encoding="utf-8"?>
<!-- Generator: Adobe Illustrator 27.2.0, SVG Export Plug-In . SVG Version: 6.00 Build 0)  -->
<svg version="1.1" id="Layer_1" xmlns="http://www.w3.org/2000/svg" xmlns:xlink="http://www.w3.org/1999/xlink" x="0px" y="0px"
	 viewBox="0 0 288 288" style="enable-background:new 0 0 288 288;" xml:space="preserve">
<style type="text/css">
	.st0{fill:#00053E;}
	.st1{fill:none;}
</style>
<g>
	<path class="st0" d="M208.08,160.75c9.45,10.8,14.46,25.74,9.53,40.04c-11.52,28.21-42.27,38.77-70.39,40.44
		c-23.36,0.72-46.72-4.05-59.11-24.55c-7.71-13.19-7.15-31.62,1.75-44.09c6.83-9.77,17.16-17.16,27.25-22.88
		c-17.88,3.18-38.46,13.98-44.41,32.97c-3.18,11.52-1.43,25.34,5.08,34.96c-1.75-0.79-3.73-3.26-5.32-5.01
		c-8.26-9.93-10.01-25.11-5.16-37.18c10.49-23.52,35.67-35.36,59.75-38.69C157.54,132.78,186.86,139.94,208.08,160.75"/>
	<path class="st0" d="M247.1,110.82c-4.26-5.39-13.77-13.16-20.98-12.74c-25.12,5.65-24.36,40.22-13.44,59.05
		c5.27,9.08,18.95,14.26,28.49,8.54c9.84-5.9,11.02-18.25,11.58-28.33C253.31,127.33,253.62,119.06,247.1,110.82z M222.62,103.57
		c-6.38,7.35-11.3,16.01-7.69,43.59c-14-31.33,9.08-44.84,9.08-44.84L222.62,103.57z"/>
	<path class="st0" d="M194.57,73.61c-5.49-10.14-14-21.67-28.54-20.04c-21.15,1.3-23.46,37.34-19.61,50.88
		c6.17,21.7,38.15,30.93,49.93,9.57C204.1,99.98,201.88,87.11,194.57,73.61z M165.29,58.62c-9.1,6.4-13.04,14.52-12.18,38.26
		c-6.11-26.43,3.08-34.82,13.53-39.37L165.29,58.62z"/>
	<path class="st0" d="M128.84,60.91c-5.91-6.04-18.08-16.93-26.93-13.59c-6.31,2.09-12.42,14.35-13.6,20.21
		c-2.52,12.46-4.77,28.37,3.33,39.25c7.1,9.54,20.4,11.7,31.59,9c10.28-2.47,13.2-11.85,14.2-21.93
		C138.61,81.93,137.34,69.6,128.84,60.91z M105,52.71c-6.38,7.35-8.63,14.04-10.47,42.58c-7.38-31.99,11.86-43.83,11.86-43.83
		L105,52.71z"/>
	<path class="st0" d="M84.66,121.78c-0.13-9.26-4.49-15.83-11.67-21.69c-3.72-3.04-19.91-11.12-24.61-7.58
		c-6.6,2.95-13.46,20.39-13.4,28.7c0.09,12.03,6.07,21.7,14.36,29.91c7.5,7.42,19.66,10.99,27.55,1.91
		C83.59,145.31,84.8,131.84,84.66,121.78z M52.84,98.97c-6.38,7.35-10.74,11.29-7.14,38.88c-14-31.33,7.26-39.62,7.26-39.62
		L52.84,98.97z"/>
</g>
<path class="st1" d="M224.15,101.68c0,0-23.08,13.52-9.08,44.84c-3.6-27.58,1.32-36.25,7.69-43.6"/>
<path class="st1" d="M166.79,56.87c-10.46,4.55-19.65,12.94-13.53,39.37c-0.86-23.74,3.08-31.86,12.18-38.26"/>
<path class="st1" d="M106.53,50.83c0,0-19.24,11.84-11.86,43.83c1.84-28.54,4.1-35.24,10.47-42.58"/>
<path class="st1" d="M53.1,97.59c0,0-21.26,8.29-7.26,39.62c-3.6-27.58,0.76-31.53,7.14-38.88"/>
</svg>
